#N canvas 107 23 1259 461 16;
#X declare -lib iemmatrix;
#X obj -274 49 hsl 1240 20 1 6000 0 0 empty \$0-scroll empty -2 -8
0 10 -33289 -4034 -1 0 1;
#X floatatom -224 362 5 0 0 0 - - -;
#X obj -117 182 bng 23 250 50 0 empty \$0-stop empty 17 7 0 10 -258113
-1 -1;
#X obj -117 151 tgl 23 0 empty empty empty 17 7 0 10 -204800 -1 -1
0 1;
#X obj -117 79 bng 23 250 50 0 empty empty empty 17 7 0 10 -204786
-1 -1;
#N canvas 0 80 1307 172 \$0-img_cnv 0;
#X coords 0 -1 1 1 1240 76 1;
#X restore -274 -28 pd \$0-img_cnv;
#X obj 131 144 hsl 400 15 0 11 0 0 bells_note_v1_hsl_s \$0-bells_note_v1
empty -2 -8 0 10 -62784 -241291 -262144 0 1;
#X obj 131 160 hsl 400 15 0 11 0 0 bells_note_v2_hsl_s \$0-bells_note_v2
empty -2 -8 0 10 -62784 -241291 -262144 0 1;
#X obj 131 176 hsl 400 15 0 11 0 0 bells_note_v3_hsl_s \$0-bells_note_v3
empty -2 -8 0 10 -62784 -241291 -262144 0 1;
#N canvas 284 79 813 390 nw 0;
#N canvas 0 22 450 300 (subpatch) 0;
#X array \$0-note_weights 12 float 0;
#X coords 0 1.1 11 -0.1 400 40 1;
#X restore 9 9 graph;
#X coords 0 -1 1 1 398 38 2 10 10;
#X restore 132 101 pd nw;
#X text -73 111 <-- duration (s.);
#X text -73 154 <-- loop;
#X text -73 184 <-- stop;
#X symbolatom 136 78 39 0 0 0 - #0-fn_disp -;
#N canvas 477 22 461 241 drum_machine 0;
#X obj 275 117 bng 15 250 50 0 \$0-s_bng_CHH \$0-r_bng_CHH empty 17
7 0 10 -262144 -1 -262144;
#X obj 275 131 bng 15 250 50 0 \$0-s_bng_SNR \$0-r_bng_SNR empty 17
7 0 10 -262144 -1 -262144;
#X obj 275 145 bng 15 250 50 0 \$0-s_bng_KCK \$0-r_bng_KCK empty 17
7 0 10 -262144 -1 -262144;
#X obj 275 89 bng 15 250 50 0 \$0-s_bng_RDE \$0-r_bng_RDE empty 17
7 0 10 -262144 -1 -262144;
#X obj 275 103 bng 15 250 50 0 \$0-s_bng_OHH \$0-r_bng_OHH empty 17
7 0 10 -262144 -1 -262144;
#N canvas 95 52 1186 599 clock 0;
#X obj 252 444 cup;
#X msg 543 413 0;
#X msg 359 254 1;
#X obj 252 254 metro;
#X obj 543 194 expr 60000/$f1;
#X obj 543 384 r \$0-rewind;
#X obj 543 5 r \$0-s_bpm;
#X obj 805 95 r \$0-G_mean_AS;
#X obj 695 5 loadbang;
#X msg 745 324 240;
#X text 869 284 <-- average person's mean AS;
#X obj 252 5 r \$0-playstop;
#X obj 319 154 spigot;
#X obj 376 114 r \$0-s_drums_sw;
#X obj 74 4 r \$0-spit_drums;
#X obj 252 194 trigger a b;
#X obj 252 555 outlet trigger;
#X obj 252 354 spigot;
#X obj 309 324 == 0;
#X msg 695 324 1;
#X obj 48 494 spigot;
#X msg 199 324 1;
#X obj 74 224 t a a a a;
#X obj 48 524 s \$0-col_drums;
#X obj 12 324 metro 10;
#X obj 805 324 * 240;
#X obj 74 114 spigot;
#X obj 131 74 == 0;
#X msg 201 74 1;
#X obj 543 255 s \$0-T_beat;
#X obj 805 425 s \$0-r_bpm;
#X obj 805 234 f;
#X obj 852 134 r \$0-normal_mean_AS;
#X obj 852 185 t b a;
#X obj 252 115 moses 1;
#X obj 805 284 / 0.9;
#X connect 0 0 20 0;
#X connect 0 0 16 0;
#X connect 1 0 0 0;
#X connect 2 0 17 0;
#X connect 3 0 17 0;
#X connect 4 0 3 1;
#X connect 4 0 29 0;
#X connect 5 0 1 0;
#X connect 6 0 4 0;
#X connect 7 0 31 0;
#X connect 8 0 9 0;
#X connect 8 0 19 0;
#X connect 8 0 28 0;
#X connect 9 0 30 0;
#X connect 11 0 27 0;
#X connect 11 0 34 0;
#X connect 12 0 15 0;
#X connect 13 0 12 1;
#X connect 14 0 26 0;
#X connect 15 0 3 0;
#X connect 15 1 2 0;
#X connect 17 0 0 0;
#X connect 18 0 17 1;
#X connect 19 0 17 1;
#X connect 20 0 23 0;
#X connect 21 0 0 0;
#X connect 22 0 24 0;
#X connect 22 1 20 1;
#X connect 22 2 18 0;
#X connect 22 3 21 0;
#X connect 24 0 0 0;
#X connect 25 0 30 0;
#X connect 26 0 22 0;
#X connect 27 0 26 1;
#X connect 28 0 26 1;
#X connect 31 0 35 0;
#X connect 32 0 33 0;
#X connect 33 0 31 0;
#X connect 33 1 35 1;
#X connect 34 0 15 0;
#X connect 34 1 12 0;
#X connect 35 0 25 0;
#X restore 11 11 pd clock;
#X floatatom 275 64 5 0 0 0 - #0-r_bpm #0-s_bpm;
#X obj 11 191 s \$0-rewind;
#X obj 299 132 hsl 124 14 0 1 0 0 \$0-s_SNR_lvl \$0-r_SNR_lvl empty
14 6 0 14 -241291 -42246 -33289 4920 1;
#X obj 299 146 hsl 124 14 0 1 0 0 \$0-s_KCK_lvl \$0-r_KCK_lvl empty
-2 -8 0 10 -241291 -42246 -33289 12300 1;
#X obj 299 90 hsl 124 42 0 1 0 0 \$0-s_cym_lvl \$0-r_cym_lvl empty
-2 -8 0 10 -241291 -42246 -33289 0 1;
#X text 301 86 ride;
#X text 301 97 open hihat;
#X text 301 111 closed hihat;
#X text 301 126 snare;
#X text 301 140 kick;
#N canvas 123 81 682 616 memory 0;
#X obj 328 18 import iemmatrix;
#X obj 328 308 s \$0-spit_drums;
#X msg 328 138 1;
#X obj 378 88 r \$0-rewind;
#X msg 378 268 0;
#X obj 378 228 spigot;
#X obj 242 48 r \$0-save_drums;
#N canvas 357 22 598 562 mtx_getall 0;
#X obj -343 23 inlet;
#X obj -427 503 outlet to mtx;
#X msg -427 463 element \$1 \$2;
#X obj -427 423 pack f f;
#X obj -181 223 cup;
#X obj -290 114 select 1;
#X obj -277 253 + 1;
#X obj -337 253 i;
#X msg -310 163 1;
#X obj -181 343 == 5;
#X msg -181 113 setbang 1;
#X obj -343 63 t b b b;
#X msg -477 114 0;
#X obj -337 283 t a a a;
#X obj -270 503 outlet row;
#X obj -47 503 outlet col;
#X obj -94 373 t a a;
#X obj -407 114 metro 1;
#X obj -181 253 select 17;
#X connect 0 0 11 0;
#X connect 2 0 1 0;
#X connect 3 0 2 0;
#X connect 4 0 18 0;
#X connect 5 0 4 0;
#X connect 5 0 8 0;
#X connect 6 0 7 1;
#X connect 7 0 6 0;
#X connect 7 0 13 0;
#X connect 8 0 7 1;
#X connect 9 0 5 0;
#X connect 10 0 4 0;
#X connect 11 0 17 0;
#X connect 11 1 8 0;
#X connect 11 2 10 0;
#X connect 12 0 17 0;
#X connect 13 0 9 0;
#X connect 13 1 3 0;
#X connect 13 2 14 0;
#X connect 16 0 3 1;
#X connect 16 1 15 0;
#X connect 17 0 7 0;
#X connect 18 0 12 0;
#X connect 18 1 16 0;
#X restore -4 236 pd mtx_getall;
#N canvas 75 195 582 266 saved_mtx 0;
#X obj 413 64 l2s;
#X obj 413 24 inlet mtx;
#X obj -21 14 inlet recall;
#X obj 143 224 outlet mtx;
#X obj 143 194 textfile;
#X msg 460 144 set \$1;
#X obj 413 104 t b a;
#X msg -21 64 read percussion_state.txt \, rewind \, bang;
#X msg 143 144 write percussion_state.txt;
#X connect 0 0 6 0;
#X connect 1 0 0 0;
#X connect 2 0 7 0;
#X connect 4 0 3 0;
#X connect 5 0 4 0;
#X connect 6 0 8 0;
#X connect 6 1 5 0;
#X connect 7 0 4 0;
#X connect 8 0 4 0;
#X restore -82 148 pd saved_mtx;
#X obj -164 468 gate_2b;
#X msg -49 398 2;
#X obj -82 186 t b b a;
#X obj -72 78 loadbang;
#X obj -164 548 s \$0-full_mtx;
#N canvas 117 133 1145 480 set_elements 0;
#X obj 651 255 r \$0-col_drums;
#X obj 471 15 r \$0-seq_row_5;
#X obj 311 15 r \$0-seq_row_4;
#X obj 141 15 r \$0-seq_row_3;
#X obj -19 15 r \$0-seq_row_2;
#X obj -174 15 r \$0-seq_row_1;
#X msg -174 245 1;
#X msg -19 244 2;
#X msg 141 244 3;
#X msg 311 244 4;
#X msg 471 244 5;
#X obj -174 365 pack f f;
#X msg -174 395 element \$1 \$2 1;
#X obj -174 435 outlet;
#X obj -174 215 spigot;
#X obj -19 215 spigot;
#X obj 141 215 spigot;
#X obj 311 215 spigot;
#X obj 471 215 spigot;
#X obj 651 55 r \$0-playstop;
#X obj 641 15 r \$0-spit_drums;
#X obj 651 85 == 0;
#X obj 641 115 f;
#X connect 0 0 11 1;
#X connect 1 0 18 0;
#X connect 2 0 17 0;
#X connect 3 0 16 0;
#X connect 4 0 15 0;
#X connect 5 0 14 0;
#X connect 6 0 11 0;
#X connect 7 0 11 0;
#X connect 8 0 11 0;
#X connect 9 0 11 0;
#X connect 10 0 11 0;
#X connect 11 0 12 0;
#X connect 12 0 13 0;
#X connect 14 0 6 0;
#X connect 15 0 7 0;
#X connect 16 0 8 0;
#X connect 17 0 9 0;
#X connect 18 0 10 0;
#X connect 19 0 21 0;
#X connect 20 0 22 0;
#X connect 21 0 22 0;
#X connect 22 0 18 1;
#X connect 22 0 17 1;
#X connect 22 0 16 1;
#X connect 22 0 15 1;
#X connect 22 0 14 1;
#X restore -164 18 pd set_elements;
#X obj -14 548 s \$0-seq_grid_1;
#X obj 157 548 s \$0-seq_grid_2;
#N canvas 771 423 420 378 distributor 0;
#X obj 40 202 pack f f f;
#X obj 40 91 t a b;
#X obj 137 131 f;
#X obj 184 236 > 16;
#X obj 117 296 gate_2b;
#X obj 184 266 + 1;
#X obj 137 171 t a a;
#X msg 40 236 \$2 \$3 \$1;
#X obj 40 21 inlet value;
#X obj 180 21 inlet row;
#X obj 290 21 inlet col;
#X obj 53 336 outlet;
#X obj 184 336 outlet;
#X connect 0 0 7 0;
#X connect 1 0 0 0;
#X connect 1 1 2 0;
#X connect 2 0 6 0;
#X connect 3 0 5 0;
#X connect 4 0 11 0;
#X connect 4 1 12 0;
#X connect 5 0 4 1;
#X connect 6 0 0 2;
#X connect 6 1 3 0;
#X connect 7 0 4 0;
#X connect 8 0 1 0;
#X connect 9 0 0 1;
#X connect 10 0 2 1;
#X restore -14 508 pd distributor;
#X obj 35 78 r \$0-full_mtx;
#X obj 56 108 r \$0-clear_drums;
#X obj -82 48 r \$0-recall_drums;
#X msg 193 398 2;
#X obj 378 138 del 10;
#X obj 242 88 t b b b;
#X msg 242 408 1;
#X obj 56 148 trigger b b b;
#X obj -164 378 mtx 5 16;
#X obj 309 348 mtx_zeros 5 16;
#X text 175 516 grid 2 not in use currently;
#X connect 2 0 1 0;
#X connect 2 0 5 1;
#X connect 3 0 22 0;
#X connect 4 0 5 1;
#X connect 4 0 1 0;
#X connect 5 0 4 0;
#X connect 5 0 26 0;
#X connect 6 0 23 0;
#X connect 7 0 26 0;
#X connect 7 1 17 1;
#X connect 7 2 17 2;
#X connect 8 0 11 0;
#X connect 9 0 13 0;
#X connect 9 1 17 0;
#X connect 10 0 9 1;
#X connect 11 0 7 0;
#X connect 11 1 10 0;
#X connect 11 2 26 1;
#X connect 12 0 8 0;
#X connect 14 0 26 0;
#X connect 17 0 15 0;
#X connect 17 1 16 0;
#X connect 18 0 8 1;
#X connect 19 0 25 0;
#X connect 20 0 8 0;
#X connect 21 0 9 1;
#X connect 22 0 5 0;
#X connect 23 0 2 0;
#X connect 23 1 27 0;
#X connect 23 2 24 0;
#X connect 24 0 9 1;
#X connect 25 0 7 0;
#X connect 25 1 21 0;
#X connect 25 2 27 0;
#X connect 26 0 9 0;
#X connect 27 0 26 1;
#X restore 311 11 pd memory;
#X obj 368 64 bng 10 250 50 0 \$0-save_drums \$0-save_drums_bng_r save
-27 5 0 10 -241291 -42246 -33289;
#X obj 413 64 bng 10 250 50 0 \$0-clear_drums empty clear -32 5 0 10
-262144 -4032 -1;
#X obj 393 77 bng 10 250 50 0 \$0-recall_drums empty recall -38 5 0
10 -191407 -4032 -1;
#X obj 11 61 seq_grid_5x16 \$0 1;
#X connect 5 0 20 0;
#X connect 20 0 7 0;
#X coords 0 -1 1 1 416 107 1 10 60;
#X restore 125 304 pd drum_machine;
#X obj 542 304 tgl 15 1 \$0-s_drums_sw \$0-r_drums_sw empty 17 7 0
10 -241291 -13381 -42246 1 1;
#X text -73 76 <-- open data file;
#X text -31 128 & play;
#X obj 586 351 bng 23 250 50 0 \$0-rec_btn_snd \$0-rec_btn_rcv empty
17 7 0 10 -262144 -258699 -262144;
#X text 611 349 <-- record;
#X text 595 389 Juan Ignacio Mendoza Garay - 2022;
#X floatatom -117 361 5 0 0 0 - - -;
#X text -236 387 elapsed;
#X text -121 387 segment start;
#N canvas 411 422 825 300 _engine_ 0;
#X obj -212 21 inlet duration;
#X obj 82 21 inlet stop;
#X obj -42 21 inlet loop;
#X obj -332 21 inlet bang;
#N canvas 39 28 1343 802 segmented_AS 0;
#X obj 48 21 inlet duration;
#X msg 195 572 0;
#X obj 88 612 cup;
#X obj -2 352 expr (1000*$f1)/$f2;
#X obj 88 772 outlet elapsed;
#X obj 285 712 s \$0-scroll;
#X msg 285 672 range 1 \$1 \, 1;
#X obj 462 212 s \$0-playstop;
#X msg 198 392 1;
#X obj 432 21 inlet stop;
#X obj 88 492 trigger a b;
#X msg 432 141 0;
#X obj 218 21 inlet loop;
#X obj 48 251 f;
#X obj 68 212 spigot;
#X obj 161 212 spigot;
#X obj 161 252 s \$0-stop;
#X obj 68 141 r \$0-end;
#X obj 218 142 == 0;
#X obj 273 141 loadbang;
#X msg 273 181 1;
#N canvas 402 28 802 735 parse_list 0;
#X obj 10 296 cup;
#X msg 10 166 1;
#X msg -154 526 \; \$2-t1 \$1;
#X obj -154 486 pack f \$0;
#X obj -154 86 list split 1;
#X obj 16 486 pack f f f \$0;
#X msg 16 526 \; \$4-v\$3 \$2 \$1;
#X obj -139 256 t a b;
#N canvas 83 25 472 369 drip_f 0;
#X obj -53 207 list;
#X obj -121 107 list split 1;
#X obj -63 137 t b l;
#X obj -63 167 del;
#X obj -53 247 spigot;
#X obj -55 287 route float;
#X msg 36 247 0;
#X msg 36 207 1;
#X obj -121 77 trigger any bang;
#X obj -121 17 inlet;
#X text 7 16 drip until non-float;
#X obj -55 327 outlet float;
#X obj 85 327 outlet EOL;
#X connect 0 0 4 0;
#X connect 1 0 5 0;
#X connect 1 1 2 0;
#X connect 2 0 3 0;
#X connect 2 1 0 1;
#X connect 3 0 0 0;
#X connect 4 0 1 0;
#X connect 5 0 11 0;
#X connect 5 1 6 0;
#X connect 5 1 12 0;
#X connect 6 0 4 1;
#X connect 7 0 4 1;
#X connect 8 0 1 0;
#X connect 8 1 7 0;
#X connect 9 0 8 0;
#X restore -139 166 pd drip_f;
#X obj -154 16 inlet;
#X msg -33 166 2;
#X obj -139 216 altgate;
#X obj 27 236 s \$0-EOL;
#X obj 132 306 cup;
#X obj 132 266 until;
#X obj 132 236 f;
#X obj 132 86 r \$0-interval;
#X msg 240 268 1;
#X obj 132 376 0;
#X obj 235 376 0;
#X obj -96 126 t a b b;
#X text -144 57 parse...;
#X obj 184 526 spigot;
#X msg 349 444 1;
#X obj 132 346 trigger bang bang any;
#X obj 339 596 select;
#X obj 396 166 r \$0-nel;
#X obj 264 526 0;
#X obj 339 626 t a a;
#X obj 132 166 trigger bang bang bang;
#X text 93 57 ...but first init the synths;
#X obj 386 686 s \$0-continue_playstop;
#X obj 386 656 del;
#X msg 184 556 \$3;
#X connect 0 0 5 2;
#X connect 1 0 0 0;
#X connect 3 0 2 0;
#X connect 4 0 3 0;
#X connect 4 1 20 0;
#X connect 5 0 6 0;
#X connect 5 0 22 0;
#X connect 7 0 5 0;
#X connect 7 1 0 0;
#X connect 8 0 11 0;
#X connect 8 1 12 0;
#X connect 9 0 4 0;
#X connect 10 0 11 1;
#X connect 11 0 7 0;
#X connect 11 1 5 1;
#X connect 13 0 24 0;
#X connect 14 0 13 0;
#X connect 15 0 14 0;
#X connect 16 0 29 0;
#X connect 17 0 13 0;
#X connect 18 0 5 0;
#X connect 19 0 5 1;
#X connect 20 0 8 0;
#X connect 20 1 10 0;
#X connect 20 2 1 0;
#X connect 22 0 33 0;
#X connect 23 0 22 1;
#X connect 24 0 18 0;
#X connect 24 1 19 0;
#X connect 24 2 5 2;
#X connect 25 0 28 0;
#X connect 26 0 25 1;
#X connect 26 0 15 1;
#X connect 27 0 22 1;
#X connect 28 0 27 0;
#X connect 28 1 32 0;
#X connect 29 0 15 0;
#X connect 29 1 17 0;
#X connect 29 2 23 0;
#X connect 32 0 31 0;
#X connect 33 0 25 0;
#X restore -319 771 pd parse_list;
#X obj -262 681 textfile;
#X msg -262 91 read \$1.csv cr \, rewind \, bang;
#X msg -319 211 2;
#X obj -319 711 gate_2;
#X obj -262 141 t a b;
#X msg -309 251 1;
#X obj -2 392 s \$0-interval;
#X obj 440 671 s \$0-end;
#X obj 285 532 t a a;
#X obj 440 642 select;
#X obj 88 532 metro 10;
#X obj 88 682 / 100;
#X obj 285 492 * 100;
#X obj -242 241 r \$0-v1;
#X obj -242 472 delay;
#X obj -168 352 r \$0-interval;
#X obj -195 392 *;
#X obj -242 351 t b a;
#X obj -242 532 spigot;
#X obj -242 271 packel 1;
#X obj 138 432 s \$0-playstop;
#X obj 545 392 r \$0-t1;
#X obj 572 601 r \$0-interval;
#X obj 545 640 *;
#X obj 545 670 / 1000;
#X obj 752 772 outlet seg_start;
#X obj 672 212 r \$0-playstop;
#X obj 545 481 spigot;
#X msg -155 432 stop;
#X obj -165 532 select 1;
#X obj -155 392 r \$0-stop_del;
#X msg -88 641 rewind \, bang;
#X obj -98 432 r \$0-playstop;
#X msg 672 432 0;
#X obj 675 481 spigot;
#X msg 732 431 1;
#X msg 622 481 1;
#X msg 752 481 0;
#X obj 675 521 del;
#X obj -68 532 r \$0-end;
#X obj -88 581 t b b;
#X obj 702 252 select 1;
#X obj 732 392 s \$0-setallsynths_s;
#X obj -382 141 r \$0-get_h;
#X obj -41 611 s \$0-get_h;
#X obj -152 141 r \$0-L;
#X obj 185 282 r \$0-L;
#N canvas 403 99 661 316 header 0;
#X obj -188 186 s \$0-seed;
#X obj -233 226 s \$0-L;
#X obj -96 106 s \$0-nel;
#X text -6 106 n_gran;
#X text -91 186 sum(Activity_Score);
#X text -166 228 n_windows;
#X obj -233 16 inlet;
#X text 5 146 mean(Activity_Score);
#X obj -142 146 s \$0-G_mean_AS;
#X obj -233 56 unpack f f f f;
#X connect 6 0 9 0;
#X connect 9 0 1 0;
#X connect 9 1 0 0;
#X connect 9 2 8 0;
#X connect 9 3 2 0;
#X restore -262 741 pd header;
#X obj 233 92 s \$0-loop_st;
#N canvas 310 216 237 420 final_end 0;
#X obj -73 -254 loadbang;
#X obj -26 -214 r \$0-loop_st;
#X obj -83 -154 spigot;
#X obj -26 -184 == 0;
#X msg -73 -214 1;
#X obj -83 -304 inlet;
#X obj -24 -64 s \$0-final_end;
#X obj -83 50 s \$0-note_v1;
#X obj -73 20 s \$0-note_v2;
#X obj -63 -10 s \$0-note_v3;
#X msg -83 -64 0;
#X obj -83 -124 bang;
#X connect 0 0 4 0;
#X connect 1 0 3 0;
#X connect 2 0 11 0;
#X connect 3 0 2 1;
#X connect 4 0 2 1;
#X connect 5 0 2 0;
#X connect 10 0 9 0;
#X connect 10 0 8 0;
#X connect 10 0 7 0;
#X connect 11 0 6 0;
#X connect 11 0 10 0;
#X restore 432 252 pd final_end;
#N canvas 472 22 593 459 load_data 0;
#X obj -40 19 inlet;
#X obj -40 309 outlet;
#N canvas 293 132 561 272 display_img 0;
#X obj -232 153 pack \$0 s;
#X obj -232 83 symbol;
#X obj -232 113 t b a;
#X msg -232 53 \$1.gif;
#X msg -52 125 \; pd-\$1-img_cnv clear;
#X obj -232 13 inlet;
#X obj -52 43 loadbang;
#X obj -52 83 \$0;
#X obj -82 44 bng 15 250 50 0 empty empty empty 17 7 0 10 -262144 -1
-1;
#X msg -232 185 \; pd-\$1-img_cnv clear \, obj 0 0 iemgui/iem_image
\$2;
#X connect 0 0 9 0;
#X connect 1 0 2 0;
#X connect 2 0 0 0;
#X connect 2 1 0 1;
#X connect 3 0 1 0;
#X connect 5 0 3 0;
#X connect 6 0 7 0;
#X connect 7 0 4 0;
#X connect 8 0 7 0;
#X restore -30 269 pd display_img;
#X obj -40 59 openpanel;
#N canvas 293 132 384 191 display_fn 0;
#X obj -139 13 inlet;
#X obj 58 12 loadbang;
#X obj 28 13 bng 15 250 50 0 empty empty empty 17 7 0 10 -262144 -1
-1;
#X obj -139 46 splitfilename /;
#X msg 8 126 \; \$2-fn_disp set \$1;
#X obj 8 86 pack s \$0;
#X msg 28 46 symbol;
#X connect 0 0 3 0;
#X connect 1 0 6 0;
#X connect 2 0 6 0;
#X connect 3 1 5 0;
#X connect 5 0 4 0;
#X connect 6 0 5 0;
#X restore -20 219 pd display_fn;
#X obj -40 89 splitfilename .;
#X obj -19 162 s \$0-std_filename;
#X connect 0 0 3 0;
#X connect 3 0 5 0;
#X connect 5 0 4 0;
#X connect 5 0 2 0;
#X connect 5 0 1 0;
#X connect 5 0 6 0;
#X restore -262 51 pd load_data;
#N canvas 276 23 739 486 AS2mean_AS 0;
#X obj -234 -303 r \$0-v1;
#X obj 84 -303 r \$0-v2;
#X obj 355 -303 r \$0-v3;
#X obj 34 -73 accum;
#X obj 57 -183 f;
#X obj -43 -223 r \$0-spit_AS;
#X obj 328 -183 f;
#X obj 228 -223 r \$0-spit_AS;
#X msg -234 -183 set \$1;
#X obj 34 -3 /;
#X obj 34 97 s \$0-mean_AS;
#X obj 175 -73 s \$0-spit_AS;
#X obj 61 -33 r \$0-nel;
#X obj 128 -183 r \$0-EOL;
#X obj 128 -143 t b b;
#X obj -234 -263 packel 2;
#X obj 84 -263 packel 2;
#X obj 355 -263 packel 2;
#X obj 34 57 * 1;
#X obj 61 27 r \$0-mean_AS_factor;
#X connect 0 0 15 0;
#X connect 1 0 16 0;
#X connect 2 0 17 0;
#X connect 3 0 9 0;
#X connect 4 0 3 1;
#X connect 5 0 4 0;
#X connect 6 0 3 1;
#X connect 7 0 6 0;
#X connect 8 0 3 0;
#X connect 9 0 18 0;
#X connect 12 0 9 1;
#X connect 13 0 14 0;
#X connect 14 0 3 0;
#X connect 14 1 11 0;
#X connect 15 0 8 0;
#X connect 16 0 4 1;
#X connect 17 0 6 1;
#X connect 18 0 10 0;
#X connect 19 0 18 1;
#X restore -138 775 pd AS2mean_AS;
#X obj -262 21 inlet bang;
#X obj 452 92 s \$0-stop_btn_snd;
#X obj 48 91 t a b;
#N canvas 338 143 188 258 check_record 0;
#X obj -22 91 s \$0-T_s;
#X obj -22 121 r \$0-go;
#X obj -22 11 inlet;
#X obj 58 201 outlet;
#X obj 58 161 f;
#X obj -22 51 trigger a a;
#X connect 1 0 4 0;
#X connect 2 0 5 0;
#X connect 4 0 3 0;
#X connect 5 0 0 0;
#X connect 5 1 4 1;
#X restore 48 51 pd check_record;
#X obj 268 282 r \$0-continue_playstop;
#X obj 268 310 t b b;
#X obj 285 408 f;
#X connect 0 0 77 0;
#X connect 1 0 2 0;
#X connect 2 0 31 0;
#X connect 2 0 5 0;
#X connect 2 0 33 0;
#X connect 3 0 28 0;
#X connect 6 0 5 0;
#X connect 8 0 42 0;
#X connect 9 0 11 0;
#X connect 9 0 75 0;
#X connect 10 0 32 0;
#X connect 10 1 1 0;
#X connect 11 0 7 0;
#X connect 11 0 71 0;
#X connect 12 0 14 1;
#X connect 12 0 18 0;
#X connect 12 0 70 0;
#X connect 13 0 3 0;
#X connect 13 0 80 1;
#X connect 14 0 13 0;
#X connect 15 0 16 0;
#X connect 15 0 71 0;
#X connect 17 0 14 0;
#X connect 17 0 15 0;
#X connect 18 0 15 1;
#X connect 19 0 20 0;
#X connect 20 0 15 1;
#X connect 22 0 25 1;
#X connect 23 0 26 0;
#X connect 24 0 25 0;
#X connect 25 0 21 0;
#X connect 25 1 69 0;
#X connect 26 0 22 0;
#X connect 26 1 24 0;
#X connect 27 0 25 0;
#X connect 30 0 6 0;
#X connect 30 1 31 1;
#X connect 31 0 29 0;
#X connect 32 0 2 0;
#X connect 33 0 4 0;
#X connect 34 0 30 0;
#X connect 35 0 41 0;
#X connect 36 0 40 0;
#X connect 37 0 38 1;
#X connect 38 0 36 1;
#X connect 39 0 36 0;
#X connect 39 1 38 0;
#X connect 40 0 22 0;
#X connect 41 0 39 0;
#X connect 43 0 56 0;
#X connect 43 0 49 0;
#X connect 44 0 45 1;
#X connect 45 0 46 0;
#X connect 46 0 47 0;
#X connect 48 0 55 0;
#X connect 48 0 57 0;
#X connect 48 0 63 0;
#X connect 49 0 45 0;
#X connect 50 0 36 0;
#X connect 51 0 22 0;
#X connect 51 1 62 0;
#X connect 52 0 50 0;
#X connect 53 0 22 0;
#X connect 54 0 40 1;
#X connect 54 0 10 0;
#X connect 54 0 51 0;
#X connect 55 0 49 1;
#X connect 56 0 59 0;
#X connect 56 0 60 0;
#X connect 57 0 56 1;
#X connect 58 0 49 1;
#X connect 59 0 56 1;
#X connect 59 0 47 0;
#X connect 60 0 58 0;
#X connect 61 0 62 0;
#X connect 62 0 53 0;
#X connect 62 1 66 0;
#X connect 63 0 64 0;
#X connect 65 0 24 0;
#X connect 67 0 27 0;
#X connect 68 0 3 1;
#X connect 72 0 23 0;
#X connect 74 0 72 0;
#X connect 76 0 13 0;
#X connect 76 1 11 0;
#X connect 77 0 76 0;
#X connect 78 0 79 0;
#X connect 79 0 8 0;
#X connect 79 1 80 0;
#X connect 80 0 34 0;
#X restore -204 171 pd segmented_AS;
#X obj -342 262 outlet elapsed;
#X obj 12 262 outlet seg_start;
#N canvas 404 332 873 426 meta_param 0;
#X obj -306 263 s \$0-mean_AS_factor;
#X msg -306 73 1;
#X obj 11 -67 inlet;
#X obj 11 -27 select 0 1;
#X obj -81 263 s \$0-perc_thresh;
#X text -79 295 RDE \, HH \, SNR \, KCK;
#X msg -111 183 0.7 1.2 1.9 0;
#X obj -71 143 trigger b a;
#X obj -81 223 list-apply /;
#X obj 114 263 s \$0-normal_mean_AS;
#X msg 114 73 0.9;
#X msg -71 73 5;
#X obj 339 263 s \$0-LPF_power;
#X msg 339 73 5;
#X obj 339 -47 loadbang;
#X msg 339 -7 \; pd dsp 1;
#X msg -258 73 1;
#X msg 174 73 1.8;
#X msg 399 73 5;
#X connect 1 0 0 0;
#X connect 1 0 7 0;
#X connect 2 0 3 0;
#X connect 3 0 1 0;
#X connect 3 0 10 0;
#X connect 3 0 13 0;
#X connect 3 1 16 0;
#X connect 3 1 11 0;
#X connect 3 1 17 0;
#X connect 3 1 18 0;
#X connect 6 0 8 0;
#X connect 7 0 6 0;
#X connect 7 1 8 2;
#X connect 8 0 4 0;
#X connect 10 0 9 0;
#X connect 11 0 7 0;
#X connect 13 0 12 0;
#X connect 14 0 15 0;
#X connect 16 0 0 0;
#X connect 17 0 9 0;
#X connect 18 0 12 0;
#X restore 238 51 pd meta_param;
#N canvas 80 153 1266 715 percussion_control 0;
#X obj 200 142 r \$0-mean_AS;
#X obj 520 276 moses 0;
#X text 612 273 <-- thresholds;
#X obj -140 596 s \$0-sw_RDE;
#X obj 140 596 s \$0-sw_HH;
#X obj 260 596 s \$0-sw_SNR;
#X obj 520 606 s \$0-sw_KCK;
#X msg 587 306 1;
#X msg 520 306 0;
#X msg 327 306 1;
#X msg 260 306 0;
#X msg 207 306 1;
#X msg 140 306 0;
#X msg -53 306 1;
#X msg -140 306 0;
#X obj -140 276 moses 0.7;
#X obj -54 533 line;
#X obj -54 563 s \$0-r_cym_lvl;
#X obj 302 553 s \$0-r_SNR_lvl;
#X obj 603 553 s \$0-r_KCK_lvl;
#X msg 603 523 1;
#X obj 743 423 loadbang;
#X msg 302 523 0.4;
#X msg 53 493 0;
#X obj -113 17 r \$0-v1;
#X obj 23 17 r \$0-v2;
#X obj 281 17 r \$0-v3;
#X obj -113 57 packel 2;
#X obj 281 57 packel 2;
#X obj -54 493 pack f f;
#X obj 23 146 *;
#X obj 23 57 packel 1;
#X text 450 17 \$0-vi: segment's length in windows and Activity Score
;
#X text 450 47 where "i" is the granularity level;
#X obj 50 116 r \$0-interval;
#X obj 140 276 moses 1.2;
#X obj 260 275 moses 1.9;
#X msg -54 383 0.4;
#X obj 530 142 r \$0-perc_thresh;
#X obj 530 182 unpack f f f f;
#X connect 0 0 1 0;
#X connect 0 0 15 0;
#X connect 0 0 35 0;
#X connect 0 0 36 0;
#X connect 1 0 8 0;
#X connect 1 1 7 0;
#X connect 7 0 6 0;
#X connect 8 0 6 0;
#X connect 9 0 5 0;
#X connect 10 0 5 0;
#X connect 11 0 4 0;
#X connect 12 0 4 0;
#X connect 13 0 3 0;
#X connect 13 0 37 0;
#X connect 14 0 3 0;
#X connect 14 0 29 0;
#X connect 15 0 14 0;
#X connect 15 1 13 0;
#X connect 16 0 17 0;
#X connect 20 0 19 0;
#X connect 21 0 20 0;
#X connect 21 0 22 0;
#X connect 21 0 23 0;
#X connect 22 0 18 0;
#X connect 23 0 16 0;
#X connect 24 0 27 0;
#X connect 25 0 31 0;
#X connect 26 0 28 0;
#X connect 29 0 16 0;
#X connect 30 0 29 1;
#X connect 31 0 30 0;
#X connect 34 0 30 1;
#X connect 35 0 12 0;
#X connect 35 1 11 0;
#X connect 36 0 10 0;
#X connect 36 1 9 0;
#X connect 37 0 29 0;
#X connect 38 0 39 0;
#X restore 238 181 pd percussion_control;
#N canvas 102 27 1113 815 percussion_synths 0;
#X obj 667 405 efficient-kick;
#X obj 457 404 efficient-snare;
#X obj 107 403 efficient-fmhh;
#X msg 107 353 2;
#X msg 287 353 1;
#X obj 677 325 r \$0-s_bng_KCK;
#X obj 467 325 r \$0-s_bng_SNR;
#X obj 116 325 r \$0-s_bng_OHH;
#X obj 298 325 r \$0-s_bng_CHH;
#X obj -194 325 r \$0-s_bng_RDE;
#X obj 677 285 s \$0-r_bng_KCK;
#N canvas 125 238 170 191 flash 0;
#X obj 61 156 outlet;
#X obj 61 16 inlet;
#X msg 61 126 color \$1 22 0;
#X msg 61 86 1;
#X msg 11 86 0;
#X obj 11 56 del 200;
#X connect 1 0 3 0;
#X connect 1 0 5 0;
#X connect 2 0 0 0;
#X connect 3 0 2 0;
#X connect 4 0 2 0;
#X connect 5 0 4 0;
#X restore 677 255 pd flash;
#N canvas 125 238 170 191 flash 0;
#X obj 61 156 outlet;
#X obj 61 16 inlet;
#X msg 61 126 color \$1 22 0;
#X msg 61 86 1;
#X msg 11 86 0;
#X obj 11 56 del 200;
#X connect 1 0 3 0;
#X connect 1 0 5 0;
#X connect 2 0 0 0;
#X connect 3 0 2 0;
#X connect 4 0 2 0;
#X connect 5 0 4 0;
#X restore 467 255 pd flash;
#N canvas 125 238 170 191 flash 0;
#X obj 61 156 outlet;
#X obj 61 16 inlet;
#X msg 61 126 color \$1 22 0;
#X msg 61 86 1;
#X msg 11 86 0;
#X obj 11 56 del 200;
#X connect 1 0 3 0;
#X connect 1 0 5 0;
#X connect 2 0 0 0;
#X connect 3 0 2 0;
#X connect 4 0 2 0;
#X connect 5 0 4 0;
#X restore 297 255 pd flash;
#N canvas 125 238 170 191 flash 0;
#X obj 61 156 outlet;
#X obj 61 16 inlet;
#X msg 61 126 color \$1 22 0;
#X msg 61 86 1;
#X msg 11 86 0;
#X obj 11 56 del 200;
#X connect 1 0 3 0;
#X connect 1 0 5 0;
#X connect 2 0 0 0;
#X connect 3 0 2 0;
#X connect 4 0 2 0;
#X connect 5 0 4 0;
#X restore 117 255 pd flash;
#N canvas 125 238 170 191 flash 0;
#X obj 61 156 outlet;
#X obj 61 16 inlet;
#X msg 61 126 color \$1 22 0;
#X msg 61 86 1;
#X msg 11 86 0;
#X obj 11 56 del 200;
#X connect 1 0 3 0;
#X connect 1 0 5 0;
#X connect 2 0 0 0;
#X connect 3 0 2 0;
#X connect 4 0 2 0;
#X connect 5 0 4 0;
#X restore -193 255 pd flash;
#X obj -193 285 s \$0-r_bng_RDE;
#X obj 117 285 s \$0-r_bng_OHH;
#X obj 297 285 s \$0-r_bng_CHH;
#X obj 467 285 s \$0-r_bng_SNR;
#X obj -204 403 efficient-fmride;
#X obj 294 593 line;
#X msg 294 563 \$1 50;
#X obj 704 593 line;
#X msg 704 563 \$1 50;
#X obj 494 593 line;
#X msg 494 563 \$1 50;
#X obj 214 593 line;
#X msg 214 563 \$1 50;
#X obj 294 523 * 0.6;
#X obj 214 523 * 0.4;
#X obj 214 443 r \$0-s_cym_lvl;
#X obj 494 443 r \$0-s_SNR_lvl;
#X obj 704 443 r \$0-s_KCK_lvl;
#X obj 667 33 r \$0-seq_row_5;
#X obj 457 33 r \$0-seq_row_4;
#X obj 287 33 r \$0-seq_row_3;
#X obj 107 33 r \$0-seq_row_2;
#X obj -204 33 r \$0-seq_row_1;
#X obj -204 223 spigot;
#X obj -147 133 == 0;
#X obj 107 223 spigot;
#X obj 287 223 spigot;
#X obj 457 223 spigot;
#X obj 667 223 spigot;
#X obj 164 133 == 0;
#X obj 344 133 == 0;
#X obj 514 133 == 0;
#X obj 724 133 == 0;
#X obj -147 73 r \$0-spit_drums;
#X obj 174 173 r \$0-sw_HH;
#X obj 524 173 r \$0-sw_SNR;
#X obj 734 173 r \$0-sw_KCK;
#X obj -204 710 throw~ \$0-drums_L;
#X obj 177 710 throw~ \$0-drums_R;
#X obj 457 710 throw~ \$0-drums_L;
#X obj 667 710 throw~ \$0-drums_R;
#X obj 457 645 *~ 1;
#X obj 667 645 *~ 1;
#X obj 177 645 *~ 0.6;
#X obj 107 645 *~ 0.4;
#X obj -17 593 line;
#X obj -204 645 *~ 0.5;
#X obj -134 645 *~ 0.5;
#X obj -171 483 r \$0-seed;
#X obj 13 323 loadbang;
#X msg 13 403 1;
#X msg -17 563 \$1 50;
#X obj -17 533 * 0.5;
#X obj -204 443 lop~ 2000;
#X obj -97 133 r \$0-sw_RDE;
#N canvas 621 187 583 494 one_last_beat 0;
#X obj 167 432 outlet;
#X obj 267 12 inlet;
#X obj 267 52 moses 1;
#X obj 284 432 outlet;
#X obj 284 382 *;
#X obj 334 352 r \$0-interval;
#X msg 481 352 0.1;
#X obj 337 249 r \$0-v2;
#X obj 337 289 packel 1;
#X obj 284 342 f;
#X obj 434 102 t a b;
#X obj 47 432 outlet;
#X obj 167 262 t a b b;
#X connect 1 0 2 0;
#X connect 2 0 12 0;
#X connect 2 1 10 0;
#X connect 4 0 3 0;
#X connect 5 0 4 1;
#X connect 6 0 3 0;
#X connect 7 0 8 0;
#X connect 8 0 9 1;
#X connect 9 0 4 0;
#X connect 10 0 0 0;
#X connect 10 1 6 0;
#X connect 12 0 0 0;
#X connect 12 1 11 0;
#X connect 12 2 9 0;
#X restore -97 173 pd one_last_beat;
#X obj -204 363 trigger b b;
#X obj -204 563 spread~;
#X connect 0 0 58 0;
#X connect 1 0 57 0;
#X connect 2 0 59 0;
#X connect 2 0 60 0;
#X connect 3 0 2 0;
#X connect 4 0 2 0;
#X connect 5 0 0 0;
#X connect 6 0 1 0;
#X connect 7 0 3 0;
#X connect 8 0 4 0;
#X connect 9 0 72 0;
#X connect 11 0 10 0;
#X connect 12 0 19 0;
#X connect 13 0 18 0;
#X connect 14 0 17 0;
#X connect 15 0 16 0;
#X connect 20 0 69 0;
#X connect 21 0 59 1;
#X connect 22 0 21 0;
#X connect 23 0 58 1;
#X connect 24 0 23 0;
#X connect 25 0 57 1;
#X connect 26 0 25 0;
#X connect 27 0 60 1;
#X connect 28 0 27 0;
#X connect 29 0 22 0;
#X connect 30 0 28 0;
#X connect 31 0 29 0;
#X connect 31 0 30 0;
#X connect 31 0 68 0;
#X connect 32 0 26 0;
#X connect 33 0 24 0;
#X connect 34 0 44 0;
#X connect 35 0 43 0;
#X connect 36 0 42 0;
#X connect 37 0 41 0;
#X connect 38 0 39 0;
#X connect 39 0 15 0;
#X connect 39 0 72 0;
#X connect 40 0 39 1;
#X connect 41 0 3 0;
#X connect 41 0 14 0;
#X connect 42 0 4 0;
#X connect 42 0 13 0;
#X connect 43 0 1 0;
#X connect 43 0 12 0;
#X connect 44 0 0 0;
#X connect 44 0 11 0;
#X connect 45 0 41 1;
#X connect 46 0 42 1;
#X connect 47 0 43 1;
#X connect 48 0 44 1;
#X connect 49 0 40 0;
#X connect 49 0 45 0;
#X connect 49 0 46 0;
#X connect 49 0 47 0;
#X connect 49 0 48 0;
#X connect 50 0 42 1;
#X connect 50 0 41 1;
#X connect 51 0 43 1;
#X connect 52 0 44 1;
#X connect 57 0 55 0;
#X connect 57 0 56 0;
#X connect 58 0 55 0;
#X connect 58 0 56 0;
#X connect 59 0 54 0;
#X connect 60 0 53 0;
#X connect 61 0 62 1;
#X connect 61 0 63 1;
#X connect 62 0 53 0;
#X connect 63 0 54 0;
#X connect 64 0 73 1;
#X connect 65 0 66 0;
#X connect 66 0 73 2;
#X connect 67 0 61 0;
#X connect 68 0 67 0;
#X connect 69 0 73 0;
#X connect 70 0 71 0;
#X connect 71 0 39 0;
#X connect 71 1 39 1;
#X connect 71 2 20 1;
#X connect 72 0 20 0;
#X connect 72 1 66 0;
#X connect 73 0 62 0;
#X connect 73 1 63 0;
#X restore 238 211 pd percussion_synths;
#N canvas 570 22 717 99 audio_mix 0;
#N canvas 589 288 446 420 bells 0;
#X obj -244 18 catch~ \$0-bells_L;
#X obj -57 18 catch~ \$0-bells_R;
#X obj 0 238 line;
#X obj 0 62 r \$0-final_end;
#X obj 10 142 r \$0-playstop;
#X obj 10 172 select 1;
#X obj -36 318 throw~ \$0-rev_R;
#X obj -222 318 throw~ \$0-rev_L;
#X obj -244 358 throw~ \$0-LPF_L;
#X obj -57 358 throw~ \$0-LPF_R;
#X obj -244 278 *~ 0.6;
#X obj -57 278 *~ 0.6;
#X msg 10 208 0.6 2;
#X msg 0 98 0.6 \, 0 4000;
#X connect 0 0 10 0;
#X connect 1 0 11 0;
#X connect 2 0 10 1;
#X connect 2 0 11 1;
#X connect 3 0 13 0;
#X connect 4 0 5 0;
#X connect 5 0 12 0;
#X connect 10 0 7 0;
#X connect 10 0 8 0;
#X connect 11 0 6 0;
#X connect 11 0 9 0;
#X connect 12 0 2 0;
#X connect 13 0 2 0;
#X restore -232 36 pd bells;
#N canvas 0 22 444 403 drums 0;
#X obj 252 50 r \$0-s_drums_sw;
#X obj 8 10 catch~ \$0-drums_L;
#X obj 195 10 catch~ \$0-drums_R;
#X obj 28 310 throw~ \$0-rev_L;
#X obj 215 310 throw~ \$0-rev_R;
#X obj 252 156 line;
#X msg 252 126 \$1 50;
#X obj 28 270 *~ 0.6;
#X obj 215 270 *~ 0.6;
#X obj 8 350 throw~ \$0-LPF_L;
#X obj 195 350 throw~ \$0-LPF_R;
#X obj 8 200 *~ 0.6;
#X obj 195 200 *~ 0.6;
#X obj 252 90 * 0.6;
#X connect 0 0 13 0;
#X connect 1 0 11 0;
#X connect 2 0 12 0;
#X connect 5 0 11 1;
#X connect 5 0 12 1;
#X connect 6 0 5 0;
#X connect 7 0 3 0;
#X connect 8 0 4 0;
#X connect 11 0 7 0;
#X connect 11 0 9 0;
#X connect 12 0 8 0;
#X connect 12 0 10 0;
#X connect 13 0 6 0;
#X restore 18 36 pd drums;
#N canvas 247 177 349 418 reverb 0;
#N canvas 719 23 433 681 reverb 0;
#X obj 36 586 freeverb~;
#X msg 155 538 bypass \$1;
#X obj 155 519 tgl 15 0 empty empty empty 0 -6 0 8 -262144 -1 -1 0
1;
#X obj 36 16 inlet~;
#X obj 123 16 inlet~;
#X obj 36 626 outlet~;
#X obj 123 626 outlet~;
#X msg 155 391 width 1;
#X msg 155 435 wet 0.3;
#X msg 155 479 dry 0.5;
#X obj 155 56 loadbang;
#X msg 155 347 damping 0;
#X msg 155 302 roomsize \$1;
#X obj 155 262 line;
#X msg 155 212 1 500;
#X obj 242 176 r \$0-final_end;
#X obj 242 106 r \$0-playstop;
#X obj 242 136 select 1;
#X msg 242 212 1 \, 0 4000;
#X connect 0 0 5 0;
#X connect 0 1 6 0;
#X connect 1 0 0 0;
#X connect 2 0 1 0;
#X connect 3 0 0 0;
#X connect 4 0 0 1;
#X connect 7 0 0 0;
#X connect 7 0 8 0;
#X connect 8 0 0 0;
#X connect 8 0 9 0;
#X connect 9 0 0 0;
#X connect 10 0 14 0;
#X connect 11 0 0 0;
#X connect 11 0 7 0;
#X connect 12 0 0 0;
#X connect 12 0 11 0;
#X connect 13 0 12 0;
#X connect 14 0 13 0;
#X connect 15 0 18 0;
#X connect 16 0 17 0;
#X connect 17 0 14 0;
#X connect 18 0 13 0;
#X restore 48 129 pd reverb;
#X obj 8 18 catch~ \$0-rev_L;
#X obj 174 18 catch~ \$0-rev_R;
#X obj 8 358 throw~ main_L;
#X obj 174 358 throw~ main_R;
#X connect 0 0 3 0;
#X connect 0 1 4 0;
#X connect 1 0 0 0;
#X connect 2 0 0 1;
#X restore 128 36 pd reverb;
#N canvas 216 74 355 313 MASTER 0;
#X obj 36 244 dac~;
#X obj 36 -22 catch~ main_L;
#X obj 183 -22 catch~ main_R;
#N canvas 226 58 836 778 record_audio 0;
#X obj -164 735 writesf~ 2;
#X obj 30 15 r \$0-std_filename;
#X msg 30 45 set \$1;
#X obj -164 15 inlet~;
#X obj -67 15 inlet~;
#X obj 198 249 r \$0-rec_btn_snd;
#X msg 30 155 /Users/juigmend/Documents/Musification_Daily_Activity/MUSDACT_data/SIM_LOW_LO_d[0_1]_h[0_0]
;
#X obj 50 85 r \$0-T_s;
#X obj 30 209 list 90;
#X msg 406 579 stop;
#X msg 30 609 start;
#X obj 30 642 t b a;
#X obj -27 735 s \$0-go;
#X obj 426 239 r \$0-stop_btn_snd;
#X msg 406 339 0;
#X obj -27 459 gate 2;
#X obj -27 642 bang;
#X msg 30 249 open \$1_\$2s.wav;
#N canvas 0 23 495 444 tgl 0;
#X obj 6 227 == 0;
#X obj 23 380 outlet;
#X msg 279 90 0;
#X obj 18 22 inlet trig;
#X obj 218 22 inlet set;
#X obj 5 173 0;
#X connect 0 0 1 0;
#X connect 0 0 5 1;
#X connect 2 0 1 0;
#X connect 2 0 5 1;
#X connect 3 0 5 0;
#X connect 4 0 2 0;
#X connect 5 0 0 0;
#X restore 198 379 pd tgl;
#X obj 218 419 tgl 15 0 empty empty empty 17 7 0 10 -262144 -1 -1 0
1;
#X obj 30 489 trigger b b a;
#X obj -27 429 + 1;
#X obj 406 209 loadbang;
#N canvas 390 136 560 560 rec_btn_colours 0;
#X obj 74 292 1;
#X obj 74 322 == 0;
#X obj 74 262 metro 500;
#X obj 95 22 inlet;
#X msg 74 462 color \$1 13 0;
#X obj 74 372 * 13;
#X obj 74 492 s \$0-rec_btn_rcv;
#X msg 134 212 1;
#X msg 74 212 0;
#X obj 186 122 t b b;
#X obj 26 122 t b b;
#X msg 26 372 0;
#X msg 186 372 13;
#X text 238 15 0 = white;
#X text 238 45 1 = alternate;
#X text 238 75 2 = red;
#X obj 95 62 select 0 1 2;
#X obj 264 492 outlet;
#X connect 0 0 1 0;
#X connect 1 0 0 1;
#X connect 1 0 5 0;
#X connect 2 0 0 0;
#X connect 3 0 16 0;
#X connect 4 0 6 0;
#X connect 5 0 4 0;
#X connect 5 0 17 0;
#X connect 7 0 2 0;
#X connect 8 0 2 0;
#X connect 9 0 12 0;
#X connect 9 1 8 0;
#X connect 10 0 11 0;
#X connect 10 1 8 0;
#X connect 11 0 4 0;
#X connect 11 0 17 0;
#X connect 12 0 4 0;
#X connect 12 0 17 0;
#X connect 16 0 10 0;
#X connect 16 1 7 0;
#X connect 16 2 9 0;
#X restore 198 489 pd rec_btn_colours;
#X msg 93 609 2;
#X obj 441 269 r \$0-end;
#X obj -164 55 *~ 0.3;
#X obj -67 55 *~ 0.3;
#X obj 218 529 tgl 15 0 empty empty empty 17 7 0 10 -262144 -1 -1 0
13;
#X obj 426 309 delay 3000;
#X obj 50 115 t b a;
#X connect 1 0 2 0;
#X connect 2 0 6 0;
#X connect 3 0 26 0;
#X connect 4 0 27 0;
#X connect 5 0 18 0;
#X connect 6 0 8 0;
#X connect 7 0 30 0;
#X connect 8 0 17 0;
#X connect 9 0 0 0;
#X connect 10 0 11 0;
#X connect 11 0 12 0;
#X connect 11 1 0 0;
#X connect 13 0 29 0;
#X connect 14 0 9 0;
#X connect 14 0 18 1;
#X connect 15 0 16 0;
#X connect 15 1 20 0;
#X connect 16 0 12 0;
#X connect 17 0 15 1;
#X connect 18 0 19 0;
#X connect 18 0 21 0;
#X connect 18 0 23 0;
#X connect 20 0 10 0;
#X connect 20 1 24 0;
#X connect 20 2 0 0;
#X connect 21 0 15 0;
#X connect 22 0 14 0;
#X connect 23 0 28 0;
#X connect 24 0 23 0;
#X connect 25 0 29 0;
#X connect 26 0 0 0;
#X connect 27 0 0 1;
#X connect 29 0 14 0;
#X connect 30 0 6 0;
#X connect 30 1 8 1;
#X restore 108 244 pd record_audio;
#X connect 1 0 0 0;
#X connect 1 0 3 0;
#X connect 2 0 0 1;
#X connect 2 0 3 1;
#X restore 328 36 pd MASTER;
#N canvas 158 367 884 322 LPF 0;
#X obj 526 144 lop~;
#X obj 693 144 lop~;
#X obj 185 104 * 20000;
#X obj 185 4 r \$0-mean_AS;
#X msg 15 64 1;
#X obj 15 4 r \$0-s_drums_sw;
#X obj 15 34 select 1;
#X floatatom 186 168 5 0 0 0 - - -;
#X obj 362 4 r \$0-LPF_power;
#X obj 185 64 expr pow($f1 \, $f2);
#X obj 526 199 throw~ main_L;
#X obj 693 199 throw~ main_R;
#X obj 526 -32 catch~ \$0-LPF_L;
#X obj 693 -32 catch~ \$0-LPF_R;
#X connect 0 0 10 0;
#X connect 1 0 11 0;
#X connect 2 0 1 1;
#X connect 2 0 0 1;
#X connect 2 0 7 0;
#X connect 3 0 9 0;
#X connect 4 0 2 0;
#X connect 5 0 6 0;
#X connect 6 0 4 0;
#X connect 8 0 9 1;
#X connect 9 0 2 0;
#X connect 12 0 0 0;
#X connect 13 0 1 0;
#X restore 238 36 pd LPF;
#N canvas 463 80 461 533 resfilt 0;
#X obj -212 358 throw~ \$0-rev_L;
#X obj -17 358 throw~ \$0-rev_R;
#X obj 20 248 line;
#X obj 20 72 r \$0-final_end;
#X obj 30 152 r \$0-playstop;
#X obj 30 182 select 1;
#X obj -234 448 throw~ \$0-LPF_L;
#X obj -37 448 throw~ \$0-LPF_R;
#X obj -234 28 catch~ \$0-resfilt_L;
#X obj -37 28 catch~ \$0-resfilt_R;
#X obj -17 328 *~ 0.5;
#X obj -212 328 *~ 0.5;
#X obj -234 418 *~ 0.5;
#X obj -37 418 *~ 0.5;
#X obj -234 288 *~ 0.9;
#X obj -37 288 *~ 0.9;
#X msg 30 218 0.9 2;
#X msg 20 108 0.9 \, 0 4000;
#X connect 2 0 14 1;
#X connect 2 0 15 1;
#X connect 3 0 17 0;
#X connect 4 0 5 0;
#X connect 5 0 16 0;
#X connect 8 0 14 0;
#X connect 9 0 15 0;
#X connect 10 0 1 0;
#X connect 11 0 0 0;
#X connect 12 0 6 0;
#X connect 13 0 7 0;
#X connect 14 0 11 0;
#X connect 14 0 12 0;
#X connect 15 0 10 0;
#X connect 15 0 13 0;
#X connect 16 0 2 0;
#X connect 17 0 2 0;
#X restore -122 36 pd resfilt;
#X restore 238 242 pd audio_mix;
#N canvas 825 22 558 456 resfilt_noise_synth 0;
#X obj 235 169 bng 8 250 50 0 empty \$0-setallsynths_s empty 17 7 0
12 -262144 -1 -1;
#X msg 17 177 3;
#X text 258 258 2) resonance [0...1];
#X text 258 239 1) transpose (octave);
#X text 258 278 3) stereo spread [0...1];
#X msg 95 177 0.2;
#X msg 174 177 1;
#X obj 235 239 bng 8 250 50 0 empty \$0-setallsynths_s empty 17 7 0
12 -262144 -1 -1;
#X msg 95 247 0.2;
#X msg 174 247 1;
#X obj 235 319 bng 8 250 50 0 empty \$0-setallsynths_s empty 17 7 0
12 -262144 -1 -1;
#X msg 95 327 0.2;
#N canvas 762 146 256 176 noise_synth 0;
#X obj 7 67 s~ \$0-resfilt_sig_v1;
#X obj 7 -45 noise~;
#X obj 17 37 s~ \$0-resfilt_sig_v2;
#X obj 27 7 s~ \$0-resfilt_sig_v3;
#X connect 1 0 0 0;
#X connect 1 0 2 0;
#X connect 1 0 3 0;
#X restore 17 -43 pd noise_synth;
#X msg 17 247 2;
#X msg 17 327 1;
#N canvas 251 225 651 195 make_envelope 0;
#X obj 10 141 s \$0-resfilt_env_v1;
#X obj 220 141 s \$0-resfilt_env_v2;
#X obj 430 141 s \$0-resfilt_env_v3;
#N canvas 579 134 598 735 envelope 0;
#N canvas 0 22 454 304 untils 0;
#X obj 261 160 f;
#X obj 288 162 + 1;
#X obj 261 138 until;
#X msg 299 132 0;
#X obj 261 107 t f b;
#X obj 261 78 inlet;
#X obj 261 190 outlet;
#X connect 0 0 1 0;
#X connect 0 0 6 0;
#X connect 1 0 0 1;
#X connect 2 0 0 0;
#X connect 3 0 0 1;
#X connect 4 0 2 0;
#X connect 4 1 3 0;
#X connect 5 0 4 0;
#X restore 11 187 pd untils;
#X msg 121 152 100;
#X obj 58 245 moses 50;
#X obj 58 317 / 50;
#X obj 11 216 t f f;
#X obj 57 605 pack 0 0;
#X obj 135 317 - 100;
#X obj 135 348 abs;
#X obj 135 379 / 50;
#X obj 202 317 - 100;
#X obj 202 348 abs;
#X obj 135 411 expr (0.5 * $f1) + 0.5;
#X obj 134 475 cos;
#X obj 134 446 * 6.28318;
#X obj 134 506 * 0.5;
#X obj 134 536 + 0.5;
#X obj 121 44 * 90;
#X obj 121 76 + 5;
#X obj 347 108 t b f;
#X obj 134 574 pow 1;
#X obj 394 140 + 1;
#X obj 394 414 pow 4;
#X text 23 688 http://www.pdpatchrepo.info/hurleur/grannie-basher.zip
;
#X text 23 668 TWEAKED from Grannie Basher;
#X obj 121 108 trigger bang float;
#X obj 56 639 outlet;
#X obj 121 12 inlet center;
#X obj 347 12 inlet slope;
#X connect 0 0 4 0;
#X connect 1 0 0 0;
#X connect 2 0 3 0;
#X connect 2 1 6 0;
#X connect 3 0 11 0;
#X connect 4 0 5 0;
#X connect 4 1 2 0;
#X connect 5 0 25 0;
#X connect 6 0 7 0;
#X connect 7 0 8 0;
#X connect 8 0 11 0;
#X connect 9 0 10 0;
#X connect 10 0 8 1;
#X connect 11 0 13 0;
#X connect 12 0 14 0;
#X connect 13 0 12 0;
#X connect 14 0 15 0;
#X connect 15 0 19 0;
#X connect 16 0 17 0;
#X connect 17 0 24 0;
#X connect 18 0 1 0;
#X connect 18 1 20 0;
#X connect 19 0 5 1;
#X connect 20 0 21 0;
#X connect 21 0 19 1;
#X connect 24 0 1 0;
#X connect 24 1 9 0;
#X connect 24 1 2 1;
#X connect 24 1 3 1;
#X connect 26 0 16 0;
#X connect 27 0 18 0;
#X restore 320 51 pd envelope;
#N canvas 0 22 450 300 (subpatch) 0;
#X array \$0-env1 100 float 1;
#A 0 0 0.000113847 0.00196519 0.0101087 0.0313407 0.0730138 0.140965
0.237564 0.360343 0.501567 0.648889 0.787009 0.900048 0.974179 1 0.999308
0.997236 0.99379 0.988982 0.98283 0.975354 0.96658 0.956539 0.945265
0.932797 0.919177 0.904451 0.888671 0.871887 0.854157 0.835539 0.816095
0.795887 0.774982 0.753446 0.731348 0.708756 0.685741 0.662374 0.638723
0.61486 0.590855 0.566774 0.542687 0.518658 0.494754 0.471035 0.447561
0.424391 0.40158 0.37918 0.357238 0.335803 0.314915 0.294613 0.274934
0.255908 0.237564 0.219925 0.203012 0.186841 0.171424 0.156771 0.142886
0.129771 0.117424 0.105839 0.0950085 0.0849193 0.0755573 0.0669049
0.0589418 0.0516457 0.044992 0.0389541 0.0335039 0.0286117 0.0242469
0.0203775 0.0169713 0.0139953 0.0114166 0.00920214 0.0073193 0.00573591
0.00442061 0.003343 0.00247385 0.00178534 0.00125116 0.000846754 0.00054941
0.000338423 0.00019519 0.000103304 4.86219e-05 1.93118e-05 5.86634e-06
1.09287e-06 6.17076e-08;
#X coords 0 1 99 0 90 63 1;
#X restore 14 40 graph;
#X obj 10 14 cnv 15 98 94 empty empty empty 6 14 0 20 -99865 -1 0;
#X obj 14 40 cnv 15 90 63 empty empty empty 6 14 0 20 -228856 -1 0
;
#X obj 320 10 inlet;
#X obj 427 10 inlet;
#X obj 430 101 s \$0-env1;
#X connect 3 0 0 0;
#X connect 3 0 1 0;
#X connect 3 0 2 0;
#X connect 3 0 9 0;
#X connect 7 0 3 0;
#X connect 8 0 3 1;
#X coords 0 -1 1 1 98 98 2 10 10;
#X restore 17 37 pd make_envelope;
#X text 258 209 PARAMETERS:;
#X text 258 29 PARAMETERS:;
#X text 258 59 1) center;
#X text 258 78 2) slope;
#X obj 235 -1 bng 8 250 50 0 empty \$0-setallsynths_s empty 17 7 0
12 -262144 -1 -1;
#X msg 108 7 0.2;
#X text 258 189 RESONATOR FILTERS;
#X text 258 9 AMPLITUDE ENVELOPE;
#X msg 17 7 0.1;
#X obj 17 207 ran_resfilt \$0 1;
#X obj 17 277 ran_resfilt \$0 2;
#X obj 17 357 ran_resfilt \$0 3;
#X msg 174 327 0.5;
#X connect 0 0 6 0;
#X connect 0 0 5 0;
#X connect 0 0 1 0;
#X connect 1 0 25 0;
#X connect 5 0 25 1;
#X connect 6 0 25 2;
#X connect 7 0 9 0;
#X connect 7 0 8 0;
#X connect 7 0 13 0;
#X connect 8 0 26 1;
#X connect 9 0 26 2;
#X connect 10 0 28 0;
#X connect 10 0 11 0;
#X connect 10 0 14 0;
#X connect 11 0 27 1;
#X connect 13 0 26 0;
#X connect 14 0 27 0;
#X connect 20 0 21 0;
#X connect 20 0 24 0;
#X connect 21 0 15 1;
#X connect 24 0 15 0;
#X connect 28 0 27 2;
#X restore 238 151 pd resfilt_noise_synth;
#N canvas 707 23 644 279 bell_synths 0;
#X text 277 135 4) LFO amplitude (float [0...1]);
#X text 277 115 3) LFO frequency (float Hz);
#X text 277 75 1) transpose (float octave);
#X text 277 95 2) attack time (float ms);
#X msg 95 187 0.5;
#X msg 144 187 0.3;
#X obj 249 179 bng 8 250 50 0 empty \$0-setallsynths_s empty 17 7 0
12 -262144 -1 -1;
#X text 278 49 PARAMETERS:;
#X text 277 155 5) stereo spread (float [0...1]);
#X msg 95 27 0.5;
#X msg 144 27 0.3;
#X obj 249 19 bng 8 250 50 0 empty \$0-setallsynths_s empty 17 7 0
12 -262144 -1 -1;
#X msg 95 107 0.5;
#X msg 144 107 0.3;
#X msg 194 107 0.5;
#X obj 249 99 bng 8 250 50 0 empty \$0-setallsynths_s empty 17 7 0
12 -262144 -1 -1;
#X msg 194 27 1;
#X msg -3 187 3;
#X msg 194 187 0;
#X msg -3 27 5;
#X msg -3 107 4;
#X msg 46 107 10;
#X msg 46 187 20;
#X msg 46 27 2;
#X obj -3 57 ran_bells_synth \$0 1;
#X obj -3 137 ran_bells_synth \$0 2;
#X obj -3 217 ran_bells_synth \$0 3;
#X connect 4 0 26 2;
#X connect 5 0 26 3;
#X connect 6 0 18 0;
#X connect 6 0 5 0;
#X connect 6 0 4 0;
#X connect 6 0 22 0;
#X connect 6 0 17 0;
#X connect 9 0 24 2;
#X connect 10 0 24 3;
#X connect 11 0 16 0;
#X connect 11 0 10 0;
#X connect 11 0 9 0;
#X connect 11 0 23 0;
#X connect 11 0 19 0;
#X connect 12 0 25 2;
#X connect 13 0 25 3;
#X connect 14 0 25 4;
#X connect 15 0 14 0;
#X connect 15 0 13 0;
#X connect 15 0 12 0;
#X connect 15 0 21 0;
#X connect 15 0 20 0;
#X connect 16 0 24 4;
#X connect 17 0 26 0;
#X connect 18 0 26 4;
#X connect 19 0 24 0;
#X connect 20 0 25 0;
#X connect 21 0 25 1;
#X connect 22 0 26 1;
#X connect 23 0 24 1;
#X restore 238 121 pd bell_synths;
#N canvas 11 33 308 144 synth_switches 0;
#N canvas 424 22 1002 347 bells_switches 0;
#X obj 39 280 s \$0-s_bells_sw;
#X obj 39 40 r \$0-s_bells_v1_sw;
#X obj 239 40 r \$0-s_bells_v2_sw;
#X obj 439 40 r \$0-s_bells_v3_sw;
#X obj 39 220 expr $f1 + $f2 + $f3;
#X obj 39 250 > 0;
#X obj 137 160 t b a;
#X obj 337 160 t b a;
#X obj 437 250 s \$0-bells_note_v1;
#X obj 437 160 select 0;
#X obj 597 130 select 0;
#X obj 757 100 select 0;
#X obj 597 220 s \$0-bells_note_v2;
#X obj 757 190 s \$0-bells_note_v3;
#X msg 437 220 color \$1 \$2 0;
#X msg 514 190 18 15;
#X msg 437 190 0 0;
#X msg 597 160 0 0;
#X msg 757 130 0 0;
#X msg 674 160 18 15;
#X msg 834 130 18 15;
#X msg 597 190 color \$1 \$2 0;
#X msg 757 160 color \$1 \$2 0;
#X connect 1 0 4 0;
#X connect 1 0 9 0;
#X connect 2 0 6 0;
#X connect 2 0 10 0;
#X connect 3 0 7 0;
#X connect 3 0 11 0;
#X connect 4 0 5 0;
#X connect 5 0 0 0;
#X connect 6 0 4 0;
#X connect 6 1 4 1;
#X connect 7 0 4 0;
#X connect 7 1 4 2;
#X connect 9 0 16 0;
#X connect 9 1 15 0;
#X connect 10 0 17 0;
#X connect 10 1 19 0;
#X connect 11 0 18 0;
#X connect 11 1 20 0;
#X connect 14 0 8 0;
#X connect 15 0 14 0;
#X connect 16 0 14 0;
#X connect 17 0 21 0;
#X connect 18 0 22 0;
#X connect 19 0 21 0;
#X connect 20 0 22 0;
#X connect 21 0 12 0;
#X connect 22 0 13 0;
#X restore 39 10 pd bells_switches;
#N canvas 424 22 1002 347 resfilt_switches 0;
#X obj 19 200 expr $f1 + $f2 + $f3;
#X obj 19 230 > 0;
#X obj 19 260 s \$0-s_resnoise_sw;
#X obj 19 20 r \$0-s_resfilt_v1_sw;
#X obj 249 20 r \$0-s_resfilt_v2_sw;
#X obj 479 20 r \$0-s_resfilt_v3_sw;
#X obj 117 130 t b a;
#X obj 347 130 t b a;
#X obj 417 130 select 0;
#X obj 577 100 select 0;
#X obj 737 70 select 0;
#X obj 417 220 s \$0-resfilt_note_v1;
#X obj 577 190 s \$0-resfilt_note_v2;
#X msg 417 190 color \$1 \$2 0;
#X msg 577 160 color \$1 \$2 0;
#X msg 494 160 39 29;
#X msg 417 160 0 0;
#X msg 577 130 0 0;
#X msg 737 100 0 0;
#X msg 654 130 39 29;
#X msg 814 100 39 29;
#X obj 737 160 s \$0-resfilt_note_v3;
#X msg 737 130 color \$1 \$2 0;
#X connect 0 0 1 0;
#X connect 1 0 2 0;
#X connect 3 0 0 0;
#X connect 3 0 8 0;
#X connect 4 0 6 0;
#X connect 4 0 9 0;
#X connect 5 0 7 0;
#X connect 5 0 10 0;
#X connect 6 0 0 0;
#X connect 6 1 0 1;
#X connect 7 0 0 0;
#X connect 7 1 0 2;
#X connect 8 0 16 0;
#X connect 8 1 15 0;
#X connect 9 0 17 0;
#X connect 9 1 19 0;
#X connect 10 0 18 0;
#X connect 10 1 20 0;
#X connect 13 0 11 0;
#X connect 14 0 12 0;
#X connect 15 0 13 0;
#X connect 16 0 13 0;
#X connect 17 0 14 0;
#X connect 18 0 22 0;
#X connect 19 0 14 0;
#X connect 20 0 22 0;
#X connect 22 0 21 0;
#X restore 39 50 pd resfilt_switches;
#N canvas 424 22 443 277 drums_switches 0;
#X obj 33 192 s \$0-r_SNR_lvl;
#X obj 44 162 s \$0-r_KCK_lvl;
#X obj 17 50 select 0;
#X msg 17 80 0 0;
#X obj 17 220 s \$0-r_cym_lvl;
#X obj 17 20 r \$0-s_drums_sw;
#X obj 202 162 s \$0-save_drums_bng_r;
#X msg 94 80 15 26;
#X msg 17 110 color \$1 \$2 12;
#X connect 2 0 3 0;
#X connect 2 1 7 0;
#X connect 3 0 8 0;
#X connect 5 0 2 0;
#X connect 7 0 8 0;
#X connect 8 0 4 0;
#X connect 8 0 0 0;
#X connect 8 0 1 0;
#X connect 8 0 6 0;
#X restore 39 90 pd drums_switches;
#X restore 238 91 pd synth_switches;
#X obj 238 21 inlet sensitivity;
#X connect 0 0 4 1;
#X connect 1 0 4 3;
#X connect 2 0 4 2;
#X connect 3 0 4 0;
#X connect 4 0 5 0;
#X connect 4 1 6 0;
#X connect 14 0 7 0;
#X restore -224 325 pd _engine_;
#X obj 131 192 hsl 400 15 0 11 0 0 resfilt_note_v1_hsl_s \$0-resfilt_note_v1
empty -2 -8 0 10 -262144 -262144 -262144 0 1;
#X obj 131 208 hsl 400 15 0 11 0 0 resfilt_note_v2_hsl_s \$0-resfilt_note_v2
empty -2 -8 0 10 -262144 -262144 -262144 0 1;
#X obj 542 144 tgl 15 1 \$0-s_bells_v1_sw \$0-r_bells_v1_sw 1_bells
18 6 0 14 -62784 -241291 -33289 1 1;
#X obj 542 160 tgl 15 1 \$0-s_bells_v2_sw \$0-r_bells_v2_sw 2_bells
18 6 0 14 -62784 -241291 -33289 1 1;
#X obj 542 176 tgl 15 1 \$0-s_bells_v3_sw \$0-r_bells_v3_sw 3_bells
18 6 0 14 -62784 -241291 -33289 1 1;
#X obj 542 192 tgl 15 0 \$0-s_resfilt_v1_sw \$0-r_resfilt_v1_sw 1_res_noise
18 6 0 14 -257472 -90133 -33289 0 1;
#X obj 542 208 tgl 15 0 \$0-s_resfilt_v2_sw \$0-r_resfilt_v2_sw 2_res_noise
18 6 0 14 -257472 -90133 -33289 0 1;
#N canvas 368 208 486 157 note_weights_GUI 0;
#X obj 10 40 cnv 15 416 17 empty empty empty 2 8 0 10 -262144 -66577
0;
#X text 11 15 C;
#X text 42 15 C#;
#X text 83 15 D;
#X text 114 15 Eb;
#X text 157 15 E;
#X text 193 15 F;
#X text 229 15 F#;
#X text 265 15 G;
#X text 301 15 Ab;
#X text 340 15 A;
#X text 373 15 Bb;
#X text 411 15 B;
#X obj 11 41 tgl 15 1 empty empty empty 17 7 0 10 -262144 -1 -1 1 1
;
#X obj 47 41 tgl 15 1 empty empty empty 17 7 0 10 -128992 -262144 -33289
0 1;
#X obj 83 41 tgl 15 1 empty empty empty 17 7 0 10 -262144 -1 -1 1 1
;
#X obj 120 41 tgl 15 1 empty empty empty 17 7 0 10 -128992 -262144
-1 0 1;
#X obj 157 41 tgl 15 1 empty empty empty 17 7 0 10 -262144 -1 -1 1
1;
#X obj 192 41 tgl 15 1 empty empty empty 17 7 0 10 -262144 -1 -1 0
1;
#X obj 230 41 tgl 15 1 empty empty empty 17 7 0 10 -128992 -262144
-1 0 1;
#X obj 266 41 tgl 15 1 empty empty empty 17 7 0 10 -262144 -1 -1 1
1;
#X obj 303 41 tgl 15 1 empty empty empty 17 7 0 10 -128992 -262144
-1 0 1;
#X obj 340 41 tgl 15 1 empty empty empty 17 7 0 10 -262144 -1 -1 1
1;
#X obj 376 41 tgl 15 1 empty empty empty 17 7 0 10 -128992 -262144
-1 0 1;
#X obj 410 41 tgl 15 1 empty empty empty 17 7 0 10 -262144 -1 -1 0
1;
#N canvas 92 23 987 792 ____________note_weights_____________ 0;
#X obj 30 20 inlet;
#X msg 398 470 1 1 1 1 1 1 1 1 1 1 1 1;
#X obj 235 560 list-add;
#X obj 654 430 expr 1-$f1;
#N canvas 350 150 353 390 list-mults 0;
#X obj 30 19 inlet;
#X obj 277 19 inlet;
#X obj 193 119 *;
#X obj 120 219 list prepend;
#X obj 177 179 t l;
#X obj 30 299 list;
#X obj 30 329 outlet;
#X obj 133 79 list-drip;
#X obj 30 49 trigger bang any bang;
#X connect 0 0 8 0;
#X connect 1 0 2 1;
#X connect 2 0 3 0;
#X connect 3 0 4 0;
#X connect 3 0 5 1;
#X connect 4 0 3 1;
#X connect 5 0 6 0;
#X connect 7 0 2 0;
#X connect 8 0 5 0;
#X connect 8 1 7 0;
#X connect 8 2 3 1;
#X restore 235 470 pd list-mults;
#X obj 385 390 t b a b a;
#N canvas 350 150 353 390 list-mults 0;
#X obj 30 19 inlet;
#X obj 277 19 inlet;
#X obj 193 119 *;
#X obj 120 219 list prepend;
#X obj 177 179 t l;
#X obj 30 299 list;
#X obj 30 329 outlet;
#X obj 133 79 list-drip;
#X obj 30 49 trigger bang any bang;
#X connect 0 0 8 0;
#X connect 1 0 2 1;
#X connect 2 0 3 0;
#X connect 3 0 4 0;
#X connect 3 0 5 1;
#X connect 4 0 3 1;
#X connect 5 0 6 0;
#X connect 7 0 2 0;
#X connect 8 0 5 0;
#X connect 8 1 7 0;
#X connect 8 2 3 1;
#X restore 527 510 pd list-mults;
#X msg 123 430 1 0 1 0 1 0 0 1 0 1 0 0;
#X obj 235 600 list prepend 0;
#X obj 235 760 s \$0-note_weights;
#X obj 90 20 inlet;
#X obj 90 50 t b a;
#X obj 150 20 inlet;
#X obj 150 50 t b a;
#X obj 210 20 inlet;
#X obj 210 50 t b a;
#X obj 270 20 inlet;
#X obj 270 50 t b a;
#X obj 330 20 inlet;
#X obj 330 50 t b a;
#X obj 390 20 inlet;
#X obj 390 50 t b a;
#X obj 450 20 inlet;
#X obj 450 50 t b a;
#X obj 510 20 inlet;
#X obj 510 50 t b a;
#X obj 570 20 inlet;
#X obj 570 50 t b a;
#X obj 630 20 inlet;
#X obj 630 50 t b a;
#X obj 690 20 inlet;
#X obj 690 50 t b a;
#X obj 90 150 pack 0 0 0 0 0 0 0 0 0 0 0 0;
#X msg 90 190 set \$1 \$2 \$3 \$4 \$5 \$6 \$7 \$8 \$9 \$10 \$11 \$12
;
#X obj 200 320 spigot;
#X msg 287 290 1;
#X msg 287 320 0;
#X msg 200 290 1;
#X obj 90 230 t b a b;
#X obj 385 320 moses 1;
#X msg 452 350 1;
#N canvas 0 22 316 238 reset 0;
#X obj 44 61 loadbang;
#X obj 24 181 outlet;
#X obj 24 21 inlet;
#X msg 24 93 0 0 0 0 0 0 0 0 0 0 0 0;
#X connect 0 0 3 0;
#X connect 2 0 3 0;
#X connect 3 0 1 0;
#X restore -7 150 pd reset;
#X obj -7 110 bng 15 250 50 0 empty empty empty 17 7 0 10 -262144 -1
-1;
#X obj 386 230 r \$0-mean_AS;
#X obj 386 290 spigot;
#X obj -7 760 s \$0-nw_MASTER;
#X obj 527 550 r \$0-nw_MASTER;
#X obj 527 735 s \$0-nw;
#X obj 527 700 spigot;
#X obj 617 700 spigot;
#X text 540 761 bells;
#X obj 531 230 +;
#X obj 543 190 t b a;
#X obj 531 260 > 0;
#X obj 531 120 r \$0-s_bells_sw;
#X obj 674 590 r \$0-s_bells_sw;
#X obj 543 160 r \$0-s_resnoise_sw;
#X obj 674 630 r \$0-s_resnoise_sw;
#X text 610 761 res. noise;
#X obj 617 735 s \$0-nw2;
#X connect 0 0 32 0;
#X connect 1 0 6 0;
#X connect 2 0 8 0;
#X connect 2 0 45 0;
#X connect 3 0 6 1;
#X connect 4 0 2 0;
#X connect 5 0 7 0;
#X connect 5 1 4 1;
#X connect 5 2 1 0;
#X connect 5 3 3 0;
#X connect 6 0 2 1;
#X connect 7 0 4 0;
#X connect 8 0 9 0;
#X connect 10 0 11 0;
#X connect 11 0 32 0;
#X connect 11 1 32 1;
#X connect 12 0 13 0;
#X connect 13 0 32 0;
#X connect 13 1 32 2;
#X connect 14 0 15 0;
#X connect 15 0 32 0;
#X connect 15 1 32 3;
#X connect 16 0 17 0;
#X connect 17 0 32 0;
#X connect 17 1 32 4;
#X connect 18 0 19 0;
#X connect 19 0 32 0;
#X connect 19 1 32 5;
#X connect 20 0 21 0;
#X connect 21 0 32 0;
#X connect 21 1 32 6;
#X connect 22 0 23 0;
#X connect 23 0 32 0;
#X connect 23 1 32 7;
#X connect 24 0 25 0;
#X connect 25 0 32 0;
#X connect 25 1 32 8;
#X connect 26 0 27 0;
#X connect 27 0 32 0;
#X connect 27 1 32 9;
#X connect 28 0 29 0;
#X connect 29 0 32 0;
#X connect 29 1 32 10;
#X connect 30 0 31 0;
#X connect 31 0 32 0;
#X connect 31 1 32 11;
#X connect 32 0 33 0;
#X connect 33 0 38 0;
#X connect 34 0 5 0;
#X connect 34 0 36 0;
#X connect 35 0 34 1;
#X connect 36 0 34 1;
#X connect 37 0 34 0;
#X connect 38 0 37 0;
#X connect 38 1 7 0;
#X connect 38 2 35 0;
#X connect 39 0 5 0;
#X connect 39 1 40 0;
#X connect 40 0 5 0;
#X connect 41 0 9 0;
#X connect 41 0 33 0;
#X connect 41 0 45 0;
#X connect 42 0 41 0;
#X connect 43 0 44 0;
#X connect 44 0 39 0;
#X connect 46 0 48 0;
#X connect 46 0 49 0;
#X connect 48 0 47 0;
#X connect 49 0 59 0;
#X connect 51 0 53 0;
#X connect 52 0 51 0;
#X connect 52 1 51 1;
#X connect 53 0 44 1;
#X connect 54 0 51 0;
#X connect 55 0 48 1;
#X connect 56 0 52 0;
#X connect 57 0 49 1;
#X restore 13 71 pd ____________note_weights_____________;
#X connect 13 0 25 0;
#X connect 14 0 25 1;
#X connect 15 0 25 2;
#X connect 16 0 25 3;
#X connect 17 0 25 4;
#X connect 18 0 25 5;
#X connect 19 0 25 6;
#X connect 20 0 25 7;
#X connect 21 0 25 8;
#X connect 22 0 25 9;
#X connect 23 0 25 10;
#X connect 24 0 25 11;
#X coords 0 -1 1 1 416 17 2 10 40;
#X restore 125 261 pd note_weights_GUI;
#X text 652 196 |;
#X text 652 183 |;
#X text 652 171 |;
#X text 652 158 |;
#X text 652 145 |;
#X text 652 132 |;
#X text 652 222 |;
#X text 652 209 |;
#X text 648 222 _;
#X text 648 119 _;
#X text 125 239 C;
#X text 156 239 C#;
#X text 197 239 D;
#X text 228 239 Eb;
#X text 271 239 E;
#X text 307 239 F;
#X text 343 239 F#;
#X text 379 239 G;
#X text 415 239 Ab;
#X text 454 239 A;
#X text 487 239 Bb;
#X text 525 239 B;
#X msg -117 110 60;
#X obj 131 224 hsl 400 15 0 11 0 0 resfilt_note_v3_hsl_s \$0-resfilt_note_v3
empty -2 -8 0 10 -262144 -262144 -262144 0 1;
#X obj 542 224 tgl 15 0 \$0-s_resfilt_v3_sw \$0-r_resfilt_v3_sw 3_res_noise
18 6 0 14 -257472 -90133 -33289 0 1;
#X text 559 106 <-- probability distribution for pitches;
#X text 559 253 <-- select pitch notes for which;
#X text 559 298 <-- select percussion on/off;
#X text 599 273 likelihood increases with activity;
#X text 656 175 - <-- select pitched voices;
#X obj -117 263 vradio 23 1 1 2 empty empty empty 0 -8 0 10 -262130
-1 -1 1;
#X text -121 234 Sensitivity:;
#X text -73 264 <-- LOW;
#X text -73 284 <-- LOWER;
#X connect 2 0 24 3;
#X connect 3 0 24 2;
#X connect 4 0 24 0;
#X connect 24 0 1 0;
#X connect 24 1 21 0;
#X connect 55 0 24 1;
#X connect 63 0 24 4;
