#N canvas 56 39 593 752 16;
#X obj 77 195 poly 4 1;
#X obj 95 265 route 1 2 3 4;
#X obj 77 125 mtof;
#X obj -20 15 inlet;
#X obj 77 85 unpack f f;
#X obj 77 155 pack f 0;
#X obj 145 671 outlet~;
#X obj 179 15 inlet;
#X obj 239 15 inlet;
#X obj 299 15 inlet;
#X obj 359 15 inlet;
#X obj -15 596 throw~ \$0-L;
#X obj 145 641 catch~ \$0-L;
#X obj 275 671 outlet~;
#X obj 275 641 catch~ \$0-R;
#X obj 419 15 inlet;
#X obj 122 596 throw~ \$0-R;
#X obj 85 516 throw~ \$0-L;
#X obj 222 516 throw~ \$0-R;
#X obj 158 436 throw~ \$0-L;
#X obj 295 436 throw~ \$0-R;
#X obj 190 315 add_synth_core;
#X obj 190 356 throw~ \$0-L;
#X obj 327 356 throw~ \$0-R;
#X obj -15 555 add_synth_core;
#X obj 85 475 add_synth_core;
#X obj 158 395 add_synth_core;
#X obj 95 235 pack 0 440 0.5 5 1000 0.5 0.5 0 1;
#X obj 479 15 inlet;
#N canvas 0 22 335 242 info 0;
#X text -229 24 INLETS:;
#X text -219 104 4) LFO frequency (Hz);
#X text -219 64 2) attack time (ms);
#X text -219 84 3) decay time (ms);
#X text -219 44 1) MIDI note \, amplitude [0 \, 1];
#X text -219 164 7) spread seed;
#X text -219 124 5) LFO amplitude [0...1];
#X text -219 144 6) stereo spread [0...1];
#X restore 459 185 pd info;
#X text 98 709 Juan Ignacio Mendoza Garay - 2022;
#X obj -20 45 route stop;
#X msg -20 85 stop;
#X connect 0 0 27 0;
#X connect 0 1 27 1;
#X connect 0 2 27 2;
#X connect 1 0 24 0;
#X connect 1 1 25 0;
#X connect 1 2 26 0;
#X connect 1 3 21 0;
#X connect 2 0 5 0;
#X connect 3 0 31 0;
#X connect 4 0 2 0;
#X connect 4 1 5 1;
#X connect 5 0 0 0;
#X connect 7 0 27 3;
#X connect 8 0 27 4;
#X connect 9 0 27 5;
#X connect 10 0 27 6;
#X connect 12 0 6 0;
#X connect 14 0 13 0;
#X connect 15 0 27 7;
#X connect 21 0 22 0;
#X connect 21 1 23 0;
#X connect 24 0 11 0;
#X connect 24 1 16 0;
#X connect 25 0 17 0;
#X connect 25 1 18 0;
#X connect 26 0 19 0;
#X connect 26 1 20 0;
#X connect 27 0 1 0;
#X connect 28 0 27 8;
#X connect 31 0 32 0;
#X connect 31 1 4 0;
#X connect 32 0 0 0;
