#N canvas 375 198 332 312 16;
#X obj 16 237 outlet;
#X obj 96 237 outlet;
#X obj 16 197 spigot;
#X obj 96 197 spigot;
#X obj 62 67 t a b;
#X obj 214 107 i;
#X obj 153 157 == 0;
#X obj 153 107 1;
#X obj 180 27 inlet control;
#X obj 62 27 inlet sig;
#X obj 180 67 == 1;
#X text 35 276 Juan I. Mendoza G. - 2021;
#N canvas 741 191 655 106 info 0;
#X text 24 21 send data of inlet 1 alternatively to outlet 1 or 2 \,
starting with outlet 1 or as specified by inlet 2 \,;
#X text 25 61 where 1 = outlet 1 \, and other number = outlet 2;
#X restore 240 217 pd info;
#X connect 2 0 0 0;
#X connect 3 0 1 0;
#X connect 4 0 3 0;
#X connect 4 0 2 0;
#X connect 4 1 7 0;
#X connect 5 0 7 1;
#X connect 6 0 3 1;
#X connect 6 0 5 0;
#X connect 7 0 2 1;
#X connect 7 0 6 0;
#X connect 8 0 10 0;
#X connect 9 0 4 0;
#X connect 10 0 7 1;
