#N canvas 222 125 728 551 16;
#X obj 137 190 poly 4 1;
#X obj 155 260 route 1 2 3 4;
#X obj 40 0 inlet;
#X obj 137 80 unpack f f;
#X obj 137 150 pack f 0;
#X obj 110 470 outlet~;
#X obj 239 0 inlet;
#X obj 299 0 inlet;
#X obj 359 0 inlet;
#X obj 419 0 inlet;
#X obj 110 440 catch~ \$0-L;
#X obj 240 470 outlet~;
#X obj 240 440 catch~ \$0-R;
#X obj 479 0 inlet;
#X obj 539 0 inlet;
#X text 123 508 Juan Ignacio Mendoza Garay - 2022;
#X obj 370 440 r \$0-spread;
#X obj 370 470 outlet;
#X obj 40 40 route stop;
#X msg 40 80 stop;
#N canvas 151 173 422 215 stereo_vcf 0;
#X obj -3 -15 inlet;
#X obj -3 128 throw~ \$0-L;
#X obj 134 128 throw~ \$0-R;
#X obj 264 128 s \$0-spread;
#X obj 70 25 r \$0-env;
#X obj -3 88 stereo_vcf_core;
#X obj 144 58 r~ \$0-sig;
#X connect 0 0 5 0;
#X connect 4 0 5 1;
#X connect 5 0 1 0;
#X connect 5 1 2 0;
#X connect 5 2 3 0;
#X connect 6 0 5 2;
#X restore 250 300 pd stereo_vcf;
#N canvas 0 23 422 215 stereo_vcf 0;
#X obj -3 -15 inlet;
#X obj -3 128 throw~ \$0-L;
#X obj 134 128 throw~ \$0-R;
#X obj 264 128 s \$0-spread;
#X obj 70 25 r \$0-env;
#X obj 144 58 r~ \$0-sig;
#X obj -3 88 stereo_vcf_core;
#X connect 0 0 6 0;
#X connect 4 0 6 1;
#X connect 5 0 6 2;
#X connect 6 0 1 0;
#X connect 6 1 2 0;
#X connect 6 2 3 0;
#X restore 218 330 pd stereo_vcf;
#N canvas 0 23 422 215 stereo_vcf 0;
#X obj -3 -15 inlet;
#X obj -3 128 throw~ \$0-L;
#X obj 134 128 throw~ \$0-R;
#X obj 264 128 s \$0-spread;
#X obj 70 25 r \$0-env;
#X obj 144 58 r~ \$0-sig;
#X obj -3 88 stereo_vcf_core;
#X connect 0 0 6 0;
#X connect 4 0 6 1;
#X connect 5 0 6 2;
#X connect 6 0 1 0;
#X connect 6 1 2 0;
#X connect 6 2 3 0;
#X restore 186 360 pd stereo_vcf;
#N canvas 0 23 422 215 stereo_vcf 0;
#X obj -3 -15 inlet;
#X obj -3 128 throw~ \$0-L;
#X obj 134 128 throw~ \$0-R;
#X obj 264 128 s \$0-spread;
#X obj 70 25 r \$0-env;
#X obj 144 58 r~ \$0-sig;
#X obj -3 88 stereo_vcf_core;
#X connect 0 0 6 0;
#X connect 4 0 6 1;
#X connect 5 0 6 2;
#X connect 6 0 1 0;
#X connect 6 1 2 0;
#X connect 6 2 3 0;
#X restore 155 390 pd stereo_vcf;
#X obj -71 40 s~ \$0-sig;
#X obj -71 0 inlet~;
#X obj 539 40 s \$0-env;
#X obj 137 120 mtof;
#N canvas 542 94 352 266 info 0;
#X text -43 51 INLETS:;
#X text -33 71 1) audio signal;
#X text -33 191 7) spread seed;
#X text -33 111 3) resonance [0...1];
#X text -33 172 6) stereo spread [0...1];
#X text -33 152 5) duration time (ms);
#X text -33 132 4) transpose factor;
#X text -43 11 poly_vcf;
#X text -33 91 2) MIDI note \, amplitude [0...1];
#X text -33 212 8) envelope curve (list);
#X restore 549 110 pd info;
#X obj 155 230 pack 0 0 0 0.2 1 1000 1 0;
#X connect 0 0 29 0;
#X connect 0 1 29 1;
#X connect 0 2 29 2;
#X connect 1 0 23 0;
#X connect 1 1 22 0;
#X connect 1 2 21 0;
#X connect 1 3 20 0;
#X connect 2 0 18 0;
#X connect 3 0 27 0;
#X connect 3 1 4 1;
#X connect 4 0 0 0;
#X connect 6 0 29 3;
#X connect 7 0 29 4;
#X connect 8 0 29 5;
#X connect 9 0 29 6;
#X connect 10 0 5 0;
#X connect 12 0 11 0;
#X connect 13 0 29 7;
#X connect 14 0 26 0;
#X connect 16 0 17 0;
#X connect 18 0 19 0;
#X connect 18 1 3 0;
#X connect 19 0 0 0;
#X connect 25 0 24 0;
#X connect 27 0 4 0;
#X connect 29 0 1 0;
