#N canvas 74 -890 831 732 16;
#X obj -224 75 list-wrandom;
#X text -74 100 transpose;
#X obj -120 -45 spigot;
#X msg -33 -75 1;
#X obj -120 35 t b a b;
#X msg -33 -45 0;
#X msg -16 165 \$1 1;
#X obj -33 -105 t b a;
#X obj -16 135 + 24;
#X obj 179 -385 inlet;
#X obj 269 -385 inlet;
#X obj 329 -385 inlet;
#X obj 389 -385 inlet;
#X obj 179 -355 * 12;
#X obj 449 -385 inlet;
#X obj -120 -75 r \$1-nw;
#N canvas 252 -747 720 539 info 0;
#X text 20 -10 INLETS:;
#X text 29 76 4) LFO amplitude (float [0...1]);
#X text 29 96 5) stereo spread (float [0...1]);
#X text 29 56 3) LFO frequency (float Hz);
#X text 29 16 1) transpose (float octave);
#X text 20 -270 ARGUMENTS:;
#X text 20 -180 RECEIVES:;
#X text 29 -244 1) \$1 master canvas ID (\$0);
#X text 29 -224 2) \$2 synth number (integer);
#X text 29 36 2) attack time (float ms);
#X text 593 -134 (float ms);
#X text 20 200 THROWS~:;
#X text 20 130 SENDS:;
#X text 29 -154 \$1-s\$2: floats list [note duration (ms) \, Activity
Score];
#X text 29 -134 \$1-interval: time length of units for segment duration
;
#X text 29 156 \$1-note_v\$2: MIDI note;
#X text 29 226 \$1-main_L;
#X text 29 246 \$1-main_R;
#X text 29 -114 \$1-nw: note weights (float P);
#X text 29 -94 \$1-seed: seed for random notes and spread (float);
#X text 29 -74 \$1-s_bells_v\$2_sw: off/on switch (int [0 \, 1]);
#X restore 389 -95 pd info;
#X obj 36 -45 - 0;
#X obj -197 -365 r \$1-v\$2;
#X obj -197 -275 unpack f;
#X obj -93 -205 r \$1-interval;
#X obj -224 -105 r \$1-seed;
#X msg -224 -75 seed \$1;
#X obj -6 235 add_polysynth;
#X obj 136 195 r \$1-seed;
#X obj -120 -145 * 3;
#X obj -36 275 throw~ \$1-bells_L;
#X obj 144 275 throw~ \$1-bells_R;
#X text -30 309 Juan Ignacio Mendoza Garay - 2022;
#X obj -197 -305 spigot;
#X obj -140 -335 r \$1-s_bells_v\$2_sw;
#X obj -224 135 s \$1-bells_note_v\$2;
#X obj -124 165 r \$0-stop;
#X msg -124 193 stop;
#X obj -197 -245 select 0;
#X obj -217 -205 s \$0-stop;
#X obj -120 -175 * 1;
#X connect 0 0 8 0;
#X connect 0 0 31 0;
#X connect 2 0 4 0;
#X connect 3 0 2 1;
#X connect 4 0 0 0;
#X connect 4 1 0 1;
#X connect 4 2 5 0;
#X connect 5 0 2 1;
#X connect 6 0 23 0;
#X connect 7 0 3 0;
#X connect 7 1 17 0;
#X connect 8 0 6 0;
#X connect 9 0 13 0;
#X connect 10 0 17 1;
#X connect 10 0 23 1;
#X connect 11 0 23 3;
#X connect 12 0 23 4;
#X connect 13 0 8 1;
#X connect 14 0 23 5;
#X connect 15 0 2 0;
#X connect 17 0 23 2;
#X connect 18 0 29 0;
#X connect 19 0 34 0;
#X connect 20 0 36 1;
#X connect 21 0 22 0;
#X connect 22 0 0 0;
#X connect 23 0 26 0;
#X connect 23 1 27 0;
#X connect 24 0 23 6;
#X connect 25 0 7 0;
#X connect 29 0 19 0;
#X connect 30 0 29 1;
#X connect 32 0 33 0;
#X connect 33 0 23 0;
#X connect 34 0 35 0;
#X connect 34 1 36 0;
#X connect 36 0 25 0;
