#N canvas 140 23 700 801 16;
#X obj -224 15 list-wrandom;
#X obj -120 -65 spigot;
#X msg -13 -95 1;
#X obj -120 -25 t b a b;
#X msg -13 -65 0;
#X obj 90 -375 inlet;
#X obj 159 -375 inlet;
#X obj 239 -375 inlet;
#N canvas 725 268 715 525 info 0;
#X text 20 -10 INLETS:;
#X text 20 -220 ARGUMENTS:;
#X text 20 -130 RECEIVES:;
#X text 29 -194 1) \$1 master canvas ID (\$0);
#X text 29 -174 2) \$2 synth number (integer);
#X text 593 -84 (float ms);
#X text 20 180 THROWS~:;
#X text 20 110 SENDS:;
#X text 29 -84 \$1-interval: time length of units for segment duration
;
#X text 29 206 \$1-main_L;
#X text 29 226 \$1-main_R;
#X text 29 -64 \$1-nw: note weights (float P);
#X text 29 -44 \$1-seed: seed for random notes and spread (float);
#X text 29 -104 \$1-v\$2: floats list [note duration (frames) \, Activity
Score];
#X text 29 136 \$1-resnoise_v\$2: pitch class;
#X text 29 35 2) resonance [0...1];
#X text 29 16 1) transpose (octave);
#X text 29 55 3) stereo spread [0...1];
#X text 20 -260 ran_resfilt;
#X restore 369 -55 pd info;
#X obj -197 -355 r \$1-v\$2;
#X obj -197 -265 unpack f;
#X obj -93 -195 r \$1-interval;
#X obj -224 -125 r \$1-seed;
#X msg -224 -95 seed \$1;
#X obj 240 -325 r \$1-seed;
#X text -47 389 Juan Ignacio Mendoza Garay - 2022;
#X obj -120 -165 * 1;
#X obj -197 -237 select 0;
#X obj -217 -197 s \$0-stop;
#X obj -104 125 r \$0-stop;
#X msg -104 155 stop;
#X obj 57 285 poly_vcf;
#X obj -13 -125 t b a;
#X obj -205 345 throw~ \$1-resfilt_L;
#X obj 25 345 throw~ \$1-resfilt_R;
#X obj 245 345 s \$1-resfilt_spread;
#X msg 4 95 \$1 1;
#X obj -197 -295 spigot;
#X obj -140 -325 r \$1-s_resfilt_v\$2_sw;
#X obj -224 95 s \$1-resfilt_note_v\$2;
#X obj 249 -285 r \$1-resfilt_env_v\$2;
#X obj -224 245 r~ \$1-resfilt_sig_v\$2;
#X obj -120 -95 r \$1-nw2;
#X obj 159 -325 * 1000;
#X obj 4 65 + 48;
#X connect 0 0 29 0;
#X connect 0 0 34 0;
#X connect 1 0 3 0;
#X connect 2 0 1 1;
#X connect 3 0 0 0;
#X connect 3 1 0 1;
#X connect 3 2 4 0;
#X connect 4 0 1 1;
#X connect 5 0 21 3;
#X connect 6 0 33 0;
#X connect 7 0 21 5;
#X connect 9 0 27 0;
#X connect 10 0 17 0;
#X connect 11 0 16 1;
#X connect 12 0 13 0;
#X connect 13 0 0 0;
#X connect 14 0 21 6;
#X connect 16 0 22 0;
#X connect 17 0 18 0;
#X connect 17 1 16 0;
#X connect 19 0 20 0;
#X connect 20 0 21 1;
#X connect 21 0 23 0;
#X connect 21 1 24 0;
#X connect 21 2 25 0;
#X connect 22 0 2 0;
#X connect 22 1 21 4;
#X connect 26 0 21 1;
#X connect 27 0 10 0;
#X connect 28 0 27 1;
#X connect 30 0 21 7;
#X connect 31 0 21 0;
#X connect 32 0 1 0;
#X connect 33 0 21 2;
#X connect 34 0 26 0;
