#N canvas 208 71 443 341 16;
#N canvas 613 338 674 275 info 0;
#X text -37 -39 INLETS:;
#X text -28 -13 1) signal~;
#X text -28 27 3) spread (float [0...1]);
#X text -28 7 2) seed (float);
#X text -36 61 inlet 3 controls the degree to which the sound is randomly
allocated to a position in the stereo image \, and also triggers the
panner;
#X text -37 141 OUTLETS:;
#X text -28 167 1 and 2) stereo signal~;
#X text -28 187 3) spread (list: ch1 ch2);
#X restore 337 57 pd info;
#X obj 12 217 *~;
#X obj 112 217 *~;
#X obj 12 257 outlet~;
#X obj 112 257 outlet~;
#X obj 130 177 line~;
#X msg 130 137 \$1 2;
#X obj 257 177 line~;
#X msg 257 137 \$1 2;
#N canvas 682 168 242 359 rand_alloc 0;
#X obj -60 106 random 101;
#X obj -60 136 - 50;
#X obj 30 207 * 0;
#X obj -60 167 / 100;
#X obj 30 237 + 0.5;
#X obj 30 276 expr 1-$f1;
#X obj -70 316 outlet L;
#X obj 30 316 outlet R;
#X obj 10 66 t b a;
#X obj 10 16 inlet;
#X obj -60 16 inlet;
#X connect 0 0 1 0;
#X connect 1 0 3 0;
#X connect 2 0 4 0;
#X connect 3 0 2 0;
#X connect 4 0 5 0;
#X connect 4 0 6 0;
#X connect 5 0 7 0;
#X connect 8 0 0 0;
#X connect 8 1 2 1;
#X connect 9 0 8 0;
#X connect 10 0 0 0;
#X restore 130 87 pd rand_alloc;
#X obj 12 17 inlet~;
#X obj 257 17 inlet;
#X msg 130 57 seed \$1;
#X obj 130 17 inlet;
#X obj 337 257 outlet;
#X text 83 296 Juan I. Mendoza G. - 2022;
#X obj 337 137 pack 0 0;
#X connect 1 0 3 0;
#X connect 2 0 4 0;
#X connect 5 0 1 1;
#X connect 6 0 5 0;
#X connect 7 0 2 1;
#X connect 8 0 7 0;
#X connect 9 0 6 0;
#X connect 9 0 16 0;
#X connect 9 1 8 0;
#X connect 9 1 16 1;
#X connect 10 0 1 0;
#X connect 10 0 2 0;
#X connect 11 0 9 1;
#X connect 12 0 9 0;
#X connect 13 0 12 0;
#X connect 16 0 14 0;
