#N canvas 90 22 599 356 16;
#X obj 80 7 inlet;
#X obj 232 281 outlet~;
#X obj 289 241 spread~;
#X obj 322 281 outlet~;
#X text 223 317 Juan Ignacio Mendoza Garay - 2022;
#X obj 412 281 outlet spread;
#X obj 35 177 MIDI_resofilt~;
#X obj 485 7 inlet~;
#X obj 386 7 inlet;
#X obj 80 57 trigger any any any;
#X obj 386 37 s \$0-env;
#X text 139 27 duration \, spread \, seed;
#X obj 126 127 r \$0-env;
#X obj 485 37 s~ \$0-s;
#X obj -5 57 r~ \$0-s;
#X msg 80 97 \$1 \$2;
#X msg 223 127 \$3 \$4 \$5;
#X text 139 7 f \, A \, q \, transp. fac. \,;
#X obj 322 127 packel 7 6;
#X connect 0 0 9 0;
#X connect 2 0 1 0;
#X connect 2 1 3 0;
#X connect 2 2 5 0;
#X connect 6 0 2 0;
#X connect 7 0 13 0;
#X connect 8 0 10 0;
#X connect 9 0 15 0;
#X connect 9 1 16 0;
#X connect 9 2 18 0;
#X connect 12 0 6 2;
#X connect 14 0 6 0;
#X connect 15 0 6 1;
#X connect 16 0 6 3;
#X connect 18 0 2 1;
#X connect 18 1 2 2;
